<?xml version="1.0" encoding="UTF-8"?>
<svg version="1.1" xmlns="http://www.w3.org/2000/svg" width="556" height="406">
<path d="M0 0 C38.28 0 76.56 0 116 0 C116 1.32 116 2.64 116 4 C116.66 4 117.32 4 118 4 C118 5.32 118 6.64 118 8 C118.66 8 119.32 8 120 8 C120 9.32 120 10.64 120 12 C120.66 12 121.32 12 122 12 C122 13.98 122 15.96 122 18 C122.66 18 123.32 18 124 18 C124 19.32 124 20.64 124 22 C124.66 22 125.32 22 126 22 C126 23.98 126 25.96 126 28 C126.66 28 127.32 28 128 28 C128 29.32 128 30.64 128 32 C128.66 32 129.32 32 130 32 C130 33.32 130 34.64 130 36 C130.66 36 131.32 36 132 36 C132 37.98 132 39.96 132 42 C132.66 42 133.32 42 134 42 C134 43.32 134 44.64 134 46 C134.66 46 135.32 46 136 46 C136 47.32 136 48.64 136 50 C136.66 50 137.32 50 138 50 C138 51.98 138 53.96 138 56 C138.66 56 139.32 56 140 56 C140 57.32 140 58.64 140 60 C140.66 60 141.32 60 142 60 C142 61.32 142 62.64 142 64 C142.66 64 143.32 64 144 64 C144 65.98 144 67.96 144 70 C144.66 70 145.32 70 146 70 C146 71.32 146 72.64 146 74 C146.66 74 147.32 74 148 74 C148 75.32 148 76.64 148 78 C148.66 78 149.32 78 150 78 C150 79.98 150 81.96 150 84 C150.66 84 151.32 84 152 84 C152 85.32 152 86.64 152 88 C152.66 88 153.32 88 154 88 C154 89.98 154 91.96 154 94 C154.66 94 155.32 94 156 94 C156 95.32 156 96.64 156 98 C156.66 98 157.32 98 158 98 C158 99.32 158 100.64 158 102 C158.66 102 159.32 102 160 102 C160 103.98 160 105.96 160 108 C160.66 108 161.32 108 162 108 C162 109.32 162 110.64 162 112 C162.66 112 163.32 112 164 112 C164 113.32 164 114.64 164 116 C164.66 116 165.32 116 166 116 C166 117.98 166 119.96 166 122 C166.66 122 167.32 122 168 122 C168 123.32 168 124.64 168 126 C168.66 126 169.32 126 170 126 C170 127.32 170 128.64 170 130 C170.66 130 171.32 130 172 130 C172 131.98 172 133.96 172 136 C172.66 136 173.32 136 174 136 C174 137.32 174 138.64 174 140 C174.66 140 175.32 140 176 140 C176 141.32 176 142.64 176 144 C176.66 144 177.32 144 178 144 C178 145.98 178 147.96 178 150 C178.66 150 179.32 150 180 150 C180 151.32 180 152.64 180 154 C180.66 154 181.32 154 182 154 C182 155.32 182 156.64 182 158 C182.66 158 183.32 158 184 158 C184 159.98 184 161.96 184 164 C184.66 164 185.32 164 186 164 C186 165.32 186 166.64 186 168 C186.66 168 187.32 168 188 168 C188 169.32 188 170.64 188 172 C188.66 172 189.32 172 190 172 C190 172.66 190 173.32 190 174 C190.66 174 191.32 174 192 174 C192 172.68 192 171.36 192 170 C192.66 170 193.32 170 194 170 C194 168.02 194 166.04 194 164 C194.66 164 195.32 164 196 164 C196 162.68 196 161.36 196 160 C196.66 160 197.32 160 198 160 C198 158.68 198 157.36 198 156 C198.66 156 199.32 156 200 156 C200 154.02 200 152.04 200 150 C200.66 150 201.32 150 202 150 C202 148.68 202 147.36 202 146 C202.66 146 203.32 146 204 146 C204 144.02 204 142.04 204 140 C204.66 140 205.32 140 206 140 C206 138.68 206 137.36 206 136 C206.66 136 207.32 136 208 136 C208 134.02 208 132.04 208 130 C208.66 130 209.32 130 210 130 C210 128.68 210 127.36 210 126 C210.66 126 211.32 126 212 126 C212 124.68 212 123.36 212 122 C212.66 122 213.32 122 214 122 C214 120.02 214 118.04 214 116 C214.66 116 215.32 116 216 116 C216 114.02 216 112.04 216 110 C216.66 110 217.32 110 218 110 C218 108.68 218 107.36 218 106 C218.66 106 219.32 106 220 106 C220 104.02 220 102.04 220 100 C220.66 100 221.32 100 222 100 C222 98.68 222 97.36 222 96 C222.66 96 223.32 96 224 96 C224 94.68 224 93.36 224 92 C224.66 92 225.32 92 226 92 C226 90.02 226 88.04 226 86 C226.66 86 227.32 86 228 86 C228 84.68 228 83.36 228 82 C228.66 82 229.32 82 230 82 C230 80.02 230 78.04 230 76 C230.66 76 231.32 76 232 76 C232 74.68 232 73.36 232 72 C232.66 72 233.32 72 234 72 C234 70.02 234 68.04 234 66 C234.66 66 235.32 66 236 66 C236 64.68 236 63.36 236 62 C236.66 62 237.32 62 238 62 C238 60.02 238 58.04 238 56 C238.66 56 239.32 56 240 56 C240 54.68 240 53.36 240 52 C240.66 52 241.32 52 242 52 C242 50.02 242 48.04 242 46 C242.66 46 243.32 46 244 46 C244 44.68 244 43.36 244 42 C244.66 42 245.32 42 246 42 C246 40.68 246 39.36 246 38 C246.66 38 247.32 38 248 38 C248 36.02 248 34.04 248 32 C248.66 32 249.32 32 250 32 C250 30.68 250 29.36 250 28 C250.66 28 251.32 28 252 28 C252 26.02 252 24.04 252 22 C252.66 22 253.32 22 254 22 C254 20.68 254 19.36 254 18 C254.66 18 255.32 18 256 18 C256 16.02 256 14.04 256 12 C256.66 12 257.32 12 258 12 C258 10.68 258 9.36 258 8 C258.66 8 259.32 8 260 8 C260 6.02 260 4.04 260 2 C260.66 2 261.32 2 262 2 C262 1.34 262 0.68 262 0 C312.16 0 362.32 0 414 0 C414 0.66 414 1.32 414 2 C416.64 2 419.28 2 422 2 C422 2.66 422 3.32 422 4 C425.3 4 428.6 4 432 4 C432 4.66 432 5.32 432 6 C434.64 6 437.28 6 440 6 C440 6.66 440 7.32 440 8 C442.64 8 445.28 8 448 8 C448 8.66 448 9.32 448 10 C449.32 10 450.64 10 452 10 C452 10.66 452 11.32 452 12 C453.98 12 455.96 12 458 12 C458 12.66 458 13.32 458 14 C459.98 14 461.96 14 464 14 C464 14.66 464 15.32 464 16 C465.32 16 466.64 16 468 16 C468 16.66 468 17.32 468 18 C469.32 18 470.64 18 472 18 C472 18.66 472 19.32 472 20 C473.32 20 474.64 20 476 20 C476 20.66 476 21.32 476 22 C477.32 22 478.64 22 480 22 C480 22.66 480 23.32 480 24 C481.32 24 482.64 24 484 24 C484 24.66 484 25.32 484 26 C484.66 26 485.32 26 486 26 C486 26.66 486 27.32 486 28 C487.32 28 488.64 28 490 28 C490 28.66 490 29.32 490 30 C491.32 30 492.64 30 494 30 C494 30.66 494 31.32 494 32 C494.66 32 495.32 32 496 32 C496 32.66 496 33.32 496 34 C496.66 34 497.32 34 498 34 C498 34.66 498 35.32 498 36 C499.32 36 500.64 36 502 36 C502 36.66 502 37.32 502 38 C502.66 38 503.32 38 504 38 C504 38.66 504 39.32 504 40 C504.66 40 505.32 40 506 40 C506 40.66 506 41.32 506 42 C507.32 42 508.64 42 510 42 C510 42.66 510 43.32 510 44 C510.66 44 511.32 44 512 44 C512 44.66 512 45.32 512 46 C512.66 46 513.32 46 514 46 C514 46.66 514 47.32 514 48 C514.66 48 515.32 48 516 48 C516 48.66 516 49.32 516 50 C516.66 50 517.32 50 518 50 C518 50.66 518 51.32 518 52 C518.66 52 519.32 52 520 52 C520 52.66 520 53.32 520 54 C520.66 54 521.32 54 522 54 C522 55.32 522 56.64 522 58 C522.66 58 523.32 58 524 58 C524 58.66 524 59.32 524 60 C524.66 60 525.32 60 526 60 C526 60.66 526 61.32 526 62 C526.66 62 527.32 62 528 62 C528 62.66 528 63.32 528 64 C528.66 64 529.32 64 530 64 C530 65.32 530 66.64 530 68 C530.66 68 531.32 68 532 68 C532 68.66 532 69.32 532 70 C532.66 70 533.32 70 534 70 C534 71.32 534 72.64 534 74 C534.66 74 535.32 74 536 74 C536 75.32 536 76.64 536 78 C536.66 78 537.32 78 538 78 C538 78.66 538 79.32 538 80 C538.66 80 539.32 80 540 80 C540 81.32 540 82.64 540 84 C540.66 84 541.32 84 542 84 C542 85.32 542 86.64 542 88 C542.66 88 543.32 88 544 88 C544 89.98 544 91.96 544 94 C544.66 94 545.32 94 546 94 C546 95.32 546 96.64 546 98 C546.66 98 547.32 98 548 98 C548 99.98 548 101.96 548 104 C548.66 104 549.32 104 550 104 C550 105.98 550 107.96 550 110 C550.66 110 551.32 110 552 110 C552 112.64 552 115.28 552 118 C552.66 118 553.32 118 554 118 C554 121.3 554 124.6 554 128 C554.66 128 555.32 128 556 128 C556 146.48 556 164.96 556 184 C555.34 184 554.68 184 554 184 C554 186.64 554 189.28 554 192 C553.34 192 552.68 192 552 192 C552 195.3 552 198.6 552 202 C551.34 202 550.68 202 550 202 C550 203.98 550 205.96 550 208 C549.34 208 548.68 208 548 208 C548 209.98 548 211.96 548 214 C547.34 214 546.68 214 546 214 C546 215.98 546 217.96 546 220 C545.34 220 544.68 220 544 220 C544 221.32 544 222.64 544 224 C543.34 224 542.68 224 542 224 C542 225.32 542 226.64 542 228 C541.34 228 540.68 228 540 228 C540 229.32 540 230.64 540 232 C539.34 232 538.68 232 538 232 C538 233.32 538 234.64 538 236 C537.34 236 536.68 236 536 236 C536 237.32 536 238.64 536 240 C535.34 240 534.68 240 534 240 C534 240.66 534 241.32 534 242 C533.34 242 532.68 242 532 242 C532 243.32 532 244.64 532 246 C531.34 246 530.68 246 530 246 C530 246.66 530 247.32 530 248 C529.34 248 528.68 248 528 248 C528 249.32 528 250.64 528 252 C527.34 252 526.68 252 526 252 C526 252.66 526 253.32 526 254 C525.34 254 524.68 254 524 254 C524 254.66 524 255.32 524 256 C523.34 256 522.68 256 522 256 C522 256.66 522 257.32 522 258 C521.34 258 520.68 258 520 258 C520 259.32 520 260.64 520 262 C519.34 262 518.68 262 518 262 C518 262.66 518 263.32 518 264 C517.34 264 516.68 264 516 264 C516 264.66 516 265.32 516 266 C515.34 266 514.68 266 514 266 C514 266.66 514 267.32 514 268 C513.34 268 512.68 268 512 268 C512 268.66 512 269.32 512 270 C511.34 270 510.68 270 510 270 C510 270.66 510 271.32 510 272 C509.34 272 508.68 272 508 272 C508 272.66 508 273.32 508 274 C506.68 274 505.36 274 504 274 C504 274.66 504 275.32 504 276 C503.34 276 502.68 276 502 276 C502 276.66 502 277.32 502 278 C501.34 278 500.68 278 500 278 C500 278.66 500 279.32 500 280 C499.34 280 498.68 280 498 280 C498 280.66 498 281.32 498 282 C496.68 282 495.36 282 494 282 C494 282.66 494 283.32 494 284 C493.34 284 492.68 284 492 284 C492 284.66 492 285.32 492 286 C490.68 286 489.36 286 488 286 C488 286.66 488 287.32 488 288 C486.68 288 485.36 288 484 288 C484 288.66 484 289.32 484 290 C483.34 290 482.68 290 482 290 C482 290.66 482 291.32 482 292 C480.68 292 479.36 292 478 292 C478 292.66 478 293.32 478 294 C476.68 294 475.36 294 474 294 C474 294.66 474 295.32 474 296 C472.68 296 471.36 296 470 296 C470 296.66 470 297.32 470 298 C468.68 298 467.36 298 466 298 C466 298.66 466 299.32 466 300 C464.02 300 462.04 300 460 300 C460 300.66 460 301.32 460 302 C458.02 302 456.04 302 454 302 C454 302.66 454 303.32 454 304 C452.02 304 450.04 304 448 304 C448 304.66 448 305.32 448 306 C446.02 306 444.04 306 442 306 C442 306.66 442 307.32 442 308 C439.36 308 436.72 308 434 308 C434 308.66 434 309.32 434 310 C428.72 310 423.44 310 418 310 C418 310.66 418 311.32 418 312 C408.1 312 398.2 312 388 312 C388 312.66 388 313.32 388 314 C387.34 314 386.68 314 386 314 C386 315.32 386 316.64 386 318 C385.34 318 384.68 318 384 318 C384 319.32 384 320.64 384 322 C383.34 322 382.68 322 382 322 C382 323.98 382 325.96 382 328 C381.34 328 380.68 328 380 328 C380 329.32 380 330.64 380 332 C379.34 332 378.68 332 378 332 C378 333.98 378 335.96 378 338 C377.34 338 376.68 338 376 338 C376 339.32 376 340.64 376 342 C375.34 342 374.68 342 374 342 C374 343.98 374 345.96 374 348 C373.34 348 372.68 348 372 348 C372 349.32 372 350.64 372 352 C371.34 352 370.68 352 370 352 C370 353.32 370 354.64 370 356 C369.34 356 368.68 356 368 356 C368 357.98 368 359.96 368 362 C367.34 362 366.68 362 366 362 C366 363.32 366 364.64 366 366 C365.34 366 364.68 366 364 366 C364 367.98 364 369.96 364 372 C363.34 372 362.68 372 362 372 C362 373.32 362 374.64 362 376 C361.34 376 360.68 376 360 376 C360 377.98 360 379.96 360 382 C359.34 382 358.68 382 358 382 C358 383.32 358 384.64 358 386 C357.34 386 356.68 386 356 386 C356 387.98 356 389.96 356 392 C355.34 392 354.68 392 354 392 C354 393.32 354 394.64 354 396 C353.34 396 352.68 396 352 396 C352 397.98 352 399.96 352 402 C351.34 402 350.68 402 350 402 C350 403.32 350 404.64 350 406 C317.66 406 285.32 406 252 406 C252 403.36 252 400.72 252 398 C252.66 398 253.32 398 254 398 C254 396.68 254 395.36 254 394 C254.66 394 255.32 394 256 394 C256 392.02 256 390.04 256 388 C256.66 388 257.32 388 258 388 C258 386.68 258 385.36 258 384 C258.66 384 259.32 384 260 384 C260 382.02 260 380.04 260 378 C260.66 378 261.32 378 262 378 C262 376.68 262 375.36 262 374 C262.66 374 263.32 374 264 374 C264 372.68 264 371.36 264 370 C264.66 370 265.32 370 266 370 C266 368.02 266 366.04 266 364 C266.66 364 267.32 364 268 364 C268 362.68 268 361.36 268 360 C268.66 360 269.32 360 270 360 C270 358.02 270 356.04 270 354 C270.66 354 271.32 354 272 354 C272 352.68 272 351.36 272 350 C272.66 350 273.32 350 274 350 C274 348.68 274 347.36 274 346 C274.66 346 275.32 346 276 346 C276 344.02 276 342.04 276 340 C276.66 340 277.32 340 278 340 C278 338.68 278 337.36 278 336 C278.66 336 279.32 336 280 336 C280 334.68 280 333.36 280 332 C280.66 332 281.32 332 282 332 C282 330.02 282 328.04 282 326 C282.66 326 283.32 326 284 326 C284 324.68 284 323.36 284 322 C284.66 322 285.32 322 286 322 C286 320.02 286 318.04 286 316 C286.66 316 287.32 316 288 316 C288 314.68 288 313.36 288 312 C288.66 312 289.32 312 290 312 C290 310.68 290 309.36 290 308 C290.66 308 291.32 308 292 308 C292 306.02 292 304.04 292 302 C292.66 302 293.32 302 294 302 C294 300.68 294 299.36 294 298 C294.66 298 295.32 298 296 298 C296 296.02 296 294.04 296 292 C296.66 292 297.32 292 298 292 C298 290.68 298 289.36 298 288 C298.66 288 299.32 288 300 288 C300 286.68 300 285.36 300 284 C300.66 284 301.32 284 302 284 C302 282.02 302 280.04 302 278 C302.66 278 303.32 278 304 278 C304 276.68 304 275.36 304 274 C304.66 274 305.32 274 306 274 C306 272.68 306 271.36 306 270 C306.66 270 307.32 270 308 270 C308 268.02 308 266.04 308 264 C308.66 264 309.32 264 310 264 C310 262.68 310 261.36 310 260 C310.66 260 311.32 260 312 260 C312 258.68 312 257.36 312 256 C312.66 256 313.32 256 314 256 C314 254.02 314 252.04 314 250 C314.66 250 315.32 250 316 250 C316 248.68 316 247.36 316 246 C316.66 246 317.32 246 318 246 C318 244.02 318 242.04 318 240 C343.08 240 368.16 240 394 240 C394 239.34 394 238.68 394 238 C395.98 238 397.96 238 400 238 C400 237.34 400 236.68 400 236 C402.64 236 405.28 236 408 236 C408 235.34 408 234.68 408 234 C409.98 234 411.96 234 414 234 C414 233.34 414 232.68 414 232 C415.32 232 416.64 232 418 232 C418 231.34 418 230.68 418 230 C419.32 230 420.64 230 422 230 C422 229.34 422 228.68 422 228 C423.32 228 424.64 228 426 228 C426 227.34 426 226.68 426 226 C426.66 226 427.32 226 428 226 C428 225.34 428 224.68 428 224 C429.32 224 430.64 224 432 224 C432 223.34 432 222.68 432 222 C432.66 222 433.32 222 434 222 C434 221.34 434 220.68 434 220 C434.66 220 435.32 220 436 220 C436 219.34 436 218.68 436 218 C436.66 218 437.32 218 438 218 C438 217.34 438 216.68 438 216 C438.66 216 439.32 216 440 216 C440 215.34 440 214.68 440 214 C440.66 214 441.32 214 442 214 C442 213.34 442 212.68 442 212 C442.66 212 443.32 212 444 212 C444 210.68 444 209.36 444 208 C444.66 208 445.32 208 446 208 C446 207.34 446 206.68 446 206 C446.66 206 447.32 206 448 206 C448 204.68 448 203.36 448 202 C448.66 202 449.32 202 450 202 C450 201.34 450 200.68 450 200 C450.66 200 451.32 200 452 200 C452 198.68 452 197.36 452 196 C452.66 196 453.32 196 454 196 C454 194.68 454 193.36 454 192 C454.66 192 455.32 192 456 192 C456 190.02 456 188.04 456 186 C456.66 186 457.32 186 458 186 C458 184.68 458 183.36 458 182 C458.66 182 459.32 182 460 182 C460 180.02 460 178.04 460 176 C460.66 176 461.32 176 462 176 C462 172.7 462 169.4 462 166 C462.66 166 463.32 166 464 166 C464 159.4 464 152.8 464 146 C463.34 146 462.68 146 462 146 C462 142.7 462 139.4 462 136 C461.34 136 460.68 136 460 136 C460 134.02 460 132.04 460 130 C459.34 130 458.68 130 458 130 C458 128.02 458 126.04 458 124 C457.34 124 456.68 124 456 124 C456 122.68 456 121.36 456 120 C455.34 120 454.68 120 454 120 C454 118.68 454 117.36 454 116 C453.34 116 452.68 116 452 116 C452 114.68 452 113.36 452 112 C451.34 112 450.68 112 450 112 C450 111.34 450 110.68 450 110 C449.34 110 448.68 110 448 110 C448 108.68 448 107.36 448 106 C447.34 106 446.68 106 446 106 C446 105.34 446 104.68 446 104 C445.34 104 444.68 104 444 104 C444 103.34 444 102.68 444 102 C443.34 102 442.68 102 442 102 C442 100.68 442 99.36 442 98 C441.34 98 440.68 98 440 98 C440 97.34 440 96.68 440 96 C439.34 96 438.68 96 438 96 C438 95.34 438 94.68 438 94 C437.34 94 436.68 94 436 94 C436 93.34 436 92.68 436 92 C435.34 92 434.68 92 434 92 C434 91.34 434 90.68 434 90 C433.34 90 432.68 90 432 90 C432 89.34 432 88.68 432 88 C430.68 88 429.36 88 428 88 C428 87.34 428 86.68 428 86 C427.34 86 426.68 86 426 86 C426 85.34 426 84.68 426 84 C424.68 84 423.36 84 422 84 C422 83.34 422 82.68 422 82 C420.68 82 419.36 82 418 82 C418 81.34 418 80.68 418 80 C416.68 80 415.36 80 414 80 C414 79.34 414 78.68 414 78 C412.68 78 411.36 78 410 78 C410 77.34 410 76.68 410 76 C408.68 76 407.36 76 406 76 C406 75.34 406 74.68 406 74 C404.02 74 402.04 74 400 74 C400 73.34 400 72.68 400 72 C396.7 72 393.4 72 390 72 C390 71.34 390 70.68 390 70 C384.82203597 70.11852115 379.64425317 70.24278768 374.46655273 70.37231445 C372.70617392 70.41555069 370.94575622 70.4572335 369.18530273 70.49731445 C366.65075987 70.55529185 364.11641066 70.61890627 361.58203125 70.68359375 C360.79850784 70.70030624 360.01498444 70.71701874 359.2077179 70.73423767 C355.3667745 70.83770807 351.73820878 71.08578184 348 72 C348 72.66 348 73.32 348 74 C347.34 74 346.68 74 346 74 C346 75.32 346 76.64 346 78 C345.34 78 344.68 78 344 78 C344 79.98 344 81.96 344 84 C343.34 84 342.68 84 342 84 C342 85.32 342 86.64 342 88 C341.34 88 340.68 88 340 88 C340 89.32 340 90.64 340 92 C339.34 92 338.68 92 338 92 C338 93.98 338 95.96 338 98 C337.34 98 336.68 98 336 98 C336 99.32 336 100.64 336 102 C335.34 102 334.68 102 334 102 C334 103.98 334 105.96 334 108 C333.34 108 332.68 108 332 108 C332 109.32 332 110.64 332 112 C331.34 112 330.68 112 330 112 C330 113.32 330 114.64 330 116 C329.34 116 328.68 116 328 116 C328 117.98 328 119.96 328 122 C327.34 122 326.68 122 326 122 C326 123.32 326 124.64 326 126 C325.34 126 324.68 126 324 126 C324 127.98 324 129.96 324 132 C323.34 132 322.68 132 322 132 C322 133.32 322 134.64 322 136 C321.34 136 320.68 136 320 136 C320 137.32 320 138.64 320 140 C319.34 140 318.68 140 318 140 C318 141.98 318 143.96 318 146 C317.34 146 316.68 146 316 146 C316 147.32 316 148.64 316 150 C315.34 150 314.68 150 314 150 C314 151.98 314 153.96 314 156 C313.34 156 312.68 156 312 156 C312 157.32 312 158.64 312 160 C311.34 160 310.68 160 310 160 C310 161.32 310 162.64 310 164 C309.34 164 308.68 164 308 164 C308 165.98 308 167.96 308 170 C307.34 170 306.68 170 306 170 C306 171.32 306 172.64 306 174 C305.34 174 304.68 174 304 174 C304 175.98 304 177.96 304 180 C303.34 180 302.68 180 302 180 C302 181.32 302 182.64 302 184 C301.34 184 300.68 184 300 184 C300 185.32 300 186.64 300 188 C299.34 188 298.68 188 298 188 C298 189.98 298 191.96 298 194 C297.34 194 296.68 194 296 194 C296 195.32 296 196.64 296 198 C295.34 198 294.68 198 294 198 C294 199.98 294 201.96 294 204 C293.34 204 292.68 204 292 204 C292 205.32 292 206.64 292 208 C291.34 208 290.68 208 290 208 C290 209.32 290 210.64 290 212 C289.34 212 288.68 212 288 212 C288 213.98 288 215.96 288 218 C287.34 218 286.68 218 286 218 C286 219.32 286 220.64 286 222 C285.34 222 284.68 222 284 222 C284 223.98 284 225.96 284 228 C283.34 228 282.68 228 282 228 C282 229.32 282 230.64 282 232 C281.34 232 280.68 232 280 232 C280 233.32 280 234.64 280 236 C279.34 236 278.68 236 278 236 C278 237.98 278 239.96 278 242 C277.34 242 276.68 242 276 242 C276 243.32 276 244.64 276 246 C275.34 246 274.68 246 274 246 C274 247.98 274 249.96 274 252 C273.34 252 272.68 252 272 252 C272 253.32 272 254.64 272 256 C271.34 256 270.68 256 270 256 C270 257.98 270 259.96 270 262 C269.34 262 268.68 262 268 262 C268 263.32 268 264.64 268 266 C267.34 266 266.68 266 266 266 C266 267.32 266 268.64 266 270 C265.34 270 264.68 270 264 270 C264 271.98 264 273.96 264 276 C263.34 276 262.68 276 262 276 C262 277.32 262 278.64 262 280 C261.34 280 260.68 280 260 280 C260 281.98 260 283.96 260 286 C259.34 286 258.68 286 258 286 C258 287.32 258 288.64 258 290 C257.34 290 256.68 290 256 290 C256 291.32 256 292.64 256 294 C255.34 294 254.68 294 254 294 C254 295.98 254 297.96 254 300 C253.34 300 252.68 300 252 300 C252 301.32 252 302.64 252 304 C251.34 304 250.68 304 250 304 C250 305.98 250 307.96 250 310 C249.34 310 248.68 310 248 310 C248 311.32 248 312.64 248 314 C247.34 314 246.68 314 246 314 C246 315.98 246 317.96 246 320 C245.34 320 244.68 320 244 320 C244 321.32 244 322.64 244 324 C243.34 324 242.68 324 242 324 C242 325.32 242 326.64 242 328 C241.34 328 240.68 328 240 328 C240 329.98 240 331.96 240 334 C239.34 334 238.68 334 238 334 C238 335.32 238 336.64 238 338 C237.34 338 236.68 338 236 338 C236 339.98 236 341.96 236 344 C235.34 344 234.68 344 234 344 C234 345.32 234 346.64 234 348 C233.34 348 232.68 348 232 348 C232 349.32 232 350.64 232 352 C231.34 352 230.68 352 230 352 C230 353.98 230 355.96 230 358 C229.34 358 228.68 358 228 358 C228 359.32 228 360.64 228 362 C227.34 362 226.68 362 226 362 C226 363.98 226 365.96 226 368 C225.34 368 224.68 368 224 368 C224 369.32 224 370.64 224 372 C223.34 372 222.68 372 222 372 C222 373.98 222 375.96 222 378 C221.34 378 220.68 378 220 378 C220 379.32 220 380.64 220 382 C219.34 382 218.68 382 218 382 C218 383.32 218 384.64 218 386 C217.34 386 216.68 386 216 386 C216 387.98 216 389.96 216 392 C215.34 392 214.68 392 214 392 C214 393.32 214 394.64 214 396 C213.34 396 212.68 396 212 396 C212 397.98 212 399.96 212 402 C211.34 402 210.68 402 210 402 C210 403.32 210 404.64 210 406 C196.14 406 182.28 406 168 406 C168 404.68 168 403.36 168 402 C167.34 402 166.68 402 166 402 C166 400.68 166 399.36 166 398 C165.34 398 164.68 398 164 398 C164 396.02 164 394.04 164 392 C163.34 392 162.68 392 162 392 C162 390.68 162 389.36 162 388 C161.34 388 160.68 388 160 388 C160 386.68 160 385.36 160 384 C159.34 384 158.68 384 158 384 C158 382.02 158 380.04 158 378 C157.34 378 156.68 378 156 378 C156 376.68 156 375.36 156 374 C155.34 374 154.68 374 154 374 C154 372.02 154 370.04 154 368 C153.34 368 152.68 368 152 368 C152 366.68 152 365.36 152 364 C151.34 364 150.68 364 150 364 C150 362.68 150 361.36 150 360 C149.34 360 148.68 360 148 360 C148 358.02 148 356.04 148 354 C147.34 354 146.68 354 146 354 C146 352.68 146 351.36 146 350 C145.34 350 144.68 350 144 350 C144 348.68 144 347.36 144 346 C143.34 346 142.68 346 142 346 C142 344.02 142 342.04 142 340 C141.34 340 140.68 340 140 340 C140 338.68 140 337.36 140 336 C139.34 336 138.68 336 138 336 C138 334.68 138 333.36 138 332 C137.34 332 136.68 332 136 332 C136 330.02 136 328.04 136 326 C135.34 326 134.68 326 134 326 C134 324.68 134 323.36 134 322 C133.34 322 132.68 322 132 322 C132 320.02 132 318.04 132 316 C131.34 316 130.68 316 130 316 C130 314.68 130 313.36 130 312 C129.34 312 128.68 312 128 312 C128 310.68 128 309.36 128 308 C127.34 308 126.68 308 126 308 C126 306.02 126 304.04 126 302 C125.34 302 124.68 302 124 302 C124 300.68 124 299.36 124 298 C123.34 298 122.68 298 122 298 C122 296.68 122 295.36 122 294 C121.34 294 120.68 294 120 294 C120 292.02 120 290.04 120 288 C119.34 288 118.68 288 118 288 C118 286.68 118 285.36 118 284 C117.34 284 116.68 284 116 284 C116 282.68 116 281.36 116 280 C115.34 280 114.68 280 114 280 C114 278.02 114 276.04 114 274 C113.34 274 112.68 274 112 274 C112 272.68 112 271.36 112 270 C111.34 270 110.68 270 110 270 C110 268.02 110 266.04 110 264 C109.34 264 108.68 264 108 264 C108 262.68 108 261.36 108 260 C107.34 260 106.68 260 106 260 C106 258.68 106 257.36 106 256 C105.34 256 104.68 256 104 256 C104 254.02 104 252.04 104 250 C103.34 250 102.68 250 102 250 C102 248.68 102 247.36 102 246 C101.34 246 100.68 246 100 246 C100 244.68 100 243.36 100 242 C99.34 242 98.68 242 98 242 C98 240.02 98 238.04 98 236 C97.34 236 96.68 236 96 236 C96 234.68 96 233.36 96 232 C95.34 232 94.68 232 94 232 C94 230.68 94 229.36 94 228 C93.34 228 92.68 228 92 228 C92 226.02 92 224.04 92 222 C91.34 222 90.68 222 90 222 C90 220.68 90 219.36 90 218 C89.34 218 88.68 218 88 218 C88 216.02 88 214.04 88 212 C87.34 212 86.68 212 86 212 C86 210.68 86 209.36 86 208 C85.34 208 84.68 208 84 208 C84 206.68 84 205.36 84 204 C83.34 204 82.68 204 82 204 C82 202.02 82 200.04 82 198 C81.34 198 80.68 198 80 198 C80 196.68 80 195.36 80 194 C79.34 194 78.68 194 78 194 C78 192.68 78 191.36 78 190 C77.34 190 76.68 190 76 190 C76 188.02 76 186.04 76 184 C75.34 184 74.68 184 74 184 C74 182.68 74 181.36 74 180 C73.34 180 72.68 180 72 180 C72 178.68 72 177.36 72 176 C71.34 176 70.68 176 70 176 C70 174.02 70 172.04 70 170 C69.34 170 68.68 170 68 170 C68 168.68 68 167.36 68 166 C67.34 166 66.68 166 66 166 C66 164.68 66 163.36 66 162 C65.34 162 64.68 162 64 162 C64 160.02 64 158.04 64 156 C63.34 156 62.68 156 62 156 C62 154.68 62 153.36 62 152 C61.34 152 60.68 152 60 152 C60 150.02 60 148.04 60 146 C59.34 146 58.68 146 58 146 C58 144.68 58 143.36 58 142 C57.34 142 56.68 142 56 142 C56 140.68 56 139.36 56 138 C55.34 138 54.68 138 54 138 C54 136.02 54 134.04 54 132 C53.34 132 52.68 132 52 132 C52 130.68 52 129.36 52 128 C51.34 128 50.68 128 50 128 C50 126.68 50 125.36 50 124 C49.34 124 48.68 124 48 124 C48 122.02 48 120.04 48 118 C47.34 118 46.68 118 46 118 C46 116.68 46 115.36 46 114 C45.34 114 44.68 114 44 114 C44 112.02 44 110.04 44 108 C43.34 108 42.68 108 42 108 C42 106.68 42 105.36 42 104 C41.34 104 40.68 104 40 104 C40 102.68 40 101.36 40 100 C39.34 100 38.68 100 38 100 C38 98.02 38 96.04 38 94 C37.34 94 36.68 94 36 94 C36 92.68 36 91.36 36 90 C35.34 90 34.68 90 34 90 C34 88.68 34 87.36 34 86 C33.34 86 32.68 86 32 86 C32 84.02 32 82.04 32 80 C31.34 80 30.68 80 30 80 C30 78.68 30 77.36 30 76 C29.34 76 28.68 76 28 76 C28 74.68 28 73.36 28 72 C27.34 72 26.68 72 26 72 C26 70.02 26 68.04 26 66 C25.34 66 24.68 66 24 66 C24 64.68 24 63.36 24 62 C23.34 62 22.68 62 22 62 C22 60.68 22 59.36 22 58 C21.34 58 20.68 58 20 58 C20 56.02 20 54.04 20 52 C19.34 52 18.68 52 18 52 C18 50.68 18 49.36 18 48 C17.34 48 16.68 48 16 48 C16 46.02 16 44.04 16 42 C15.34 42 14.68 42 14 42 C14 40.68 14 39.36 14 38 C13.34 38 12.68 38 12 38 C12 36.68 12 35.36 12 34 C11.34 34 10.68 34 10 34 C10 32.02 10 30.04 10 28 C9.34 28 8.68 28 8 28 C8 26.68 8 25.36 8 24 C7.34 24 6.68 24 6 24 C6 22.68 6 21.36 6 20 C5.34 20 4.68 20 4 20 C4 18.02 4 16.04 4 14 C3.34 14 2.68 14 2 14 C2 12.68 2 11.36 2 10 C1.34 10 0.68 10 0 10 C0 6.7 0 3.4 0 0 Z " fill="#0A4429" transform="translate(0,0)"/>
<path d="M0 0 C2.07091293 2.6120406 3.61307759 5.06487733 4.90673828 8.13378906 C5.25273575 8.94695587 5.59873322 9.76012268 5.95521545 10.59793091 C6.32319748 11.47826996 6.6911795 12.35860901 7.0703125 13.265625 C7.66017189 14.65803909 7.66017189 14.65803909 8.26194763 16.07858276 C9.5547612 19.13358249 10.8398473 22.19177062 12.125 25.25 C13.02931529 27.39069519 13.93418844 29.5311548 14.83959961 31.67138672 C16.6834656 36.03151168 18.52465301 40.39275248 20.36376953 44.75488281 C22.71017591 50.31751438 25.06805443 55.87516856 27.43359375 61.4296875 C27.77881073 62.2403215 28.12402771 63.05095551 28.47970581 63.88615417 C29.16608779 65.49775429 29.85249902 67.10934195 30.53894043 68.72091675 C39.26920452 89.22610501 47.93047933 109.76046853 56.59277344 130.29443359 C58.98007352 135.95324136 61.36872081 141.61147968 63.7578125 147.26953125 C64.14928467 148.19664917 64.54075684 149.12376709 64.9440918 150.07897949 C66.12937147 152.88599606 67.31467996 155.69300047 68.5 158.5 C72.87248903 168.85465042 77.24492631 179.20932142 81.6137085 189.5655365 C90.78007483 211.29433162 99.97090104 233.01241379 109.20117188 254.71414185 C109.53955078 255.50972504 109.87792969 256.30530823 110.2265625 257.125 C110.55785156 257.90390594 110.88914062 258.68281189 111.23046875 259.48532104 C117.27846825 273.70714162 123.28925309 287.94468239 129.296875 302.18359375 C137.22100943 320.96363591 145.15270585 339.74034177 153.125 358.5 C153.47877716 359.33285522 153.83255432 360.16571045 154.197052 361.02380371 C157.46617056 368.71903465 160.73913383 376.41226495 164.05859375 384.0859375 C164.49220215 385.08947266 164.92581055 386.09300781 165.37255859 387.12695312 C166.13379314 388.88494574 166.89814467 390.64159402 167.66650391 392.39648438 C170 397.78092894 170 397.78092894 170 400 C182.54 400 195.08 400 208 400 C209.485 395.545 209.485 395.545 211 391 C212.18572504 387.96529654 213.39034633 384.94844809 214.6328125 381.9375 C214.98156937 381.08580231 215.33032623 380.23410461 215.68965149 379.3565979 C216.83179897 376.56983662 217.9782906 373.78488688 219.125 371 C219.93514684 369.02659958 220.7451212 367.05312834 221.55493164 365.07958984 C227.86124825 349.72226266 234.21401166 334.38418195 240.58261108 319.05259705 C245.20663065 307.92057258 249.80995906 296.78009447 254.4078064 285.63723755 C261.05566269 269.52687411 267.72665166 253.4265479 274.43798828 237.3425293 C279.14178096 226.0684862 283.82403361 214.78561 288.5 203.5 C293.75939894 190.80772097 299.02653123 178.11873809 304.3125 165.4375 C304.6099411 164.72386292 304.9073822 164.01022583 305.21383667 163.27496338 C308.26558614 155.9534286 311.31882972 148.63251741 314.37304688 141.31201172 C316.50393073 136.20450691 318.63425032 131.09676709 320.76409912 125.98883057 C321.62551247 123.92298537 322.4870429 121.85718898 323.34869385 119.79144287 C327.70620868 109.34311425 332.05467206 98.89139884 336.3515625 88.41796875 C336.68359177 87.60902161 337.01562103 86.80007446 337.35771179 85.96661377 C338.89287812 82.22461428 340.42472934 78.48130684 341.95141602 74.73583984 C342.48188304 73.43975795 343.01239742 72.14369545 343.54296875 70.84765625 C344.2239563 69.1771521 344.2239563 69.1771521 344.91870117 67.47290039 C346 65 346 65 347 64 C349.42753657 63.89892416 351.82594078 63.86029878 354.25390625 63.8671875 C354.98818344 63.86623077 355.72246063 63.86527405 356.47898865 63.86428833 C358.04011114 63.86360603 359.60123643 63.86546379 361.16235352 63.86962891 C363.52822452 63.8749233 365.89390099 63.86971359 368.25976562 63.86328125 C369.77864625 63.86394307 371.29752675 63.86522636 372.81640625 63.8671875 C373.86532799 63.86415115 373.86532799 63.86415115 374.93544006 63.86105347 C379.69954937 63.88323964 384.28158798 64.33495124 389 65 C389 65.33 389 65.66 389 66 C387.93563721 66.02505615 386.87127441 66.0501123 385.7746582 66.07592773 C381.81425571 66.1703167 377.85401577 66.27045975 373.89379883 66.37231445 C372.18192353 66.41554445 370.47000843 66.45722765 368.75805664 66.49731445 C366.29300966 66.55530714 363.82816082 66.61891697 361.36328125 66.68359375 C360.60163162 66.70030624 359.83998199 66.71701874 359.05525208 66.73423767 C355.2650395 66.83917914 351.6895278 67.10392627 348 68 C348 68.66 348 69.32 348 70 C347.34 70 346.68 70 346 70 C346 71.32 346 72.64 346 74 C345.34 74 344.68 74 344 74 C344 75.98 344 77.96 344 80 C343.34 80 342.68 80 342 80 C342 81.32 342 82.64 342 84 C341.34 84 340.68 84 340 84 C340 85.32 340 86.64 340 88 C339.34 88 338.68 88 338 88 C338 89.98 338 91.96 338 94 C337.34 94 336.68 94 336 94 C336 95.32 336 96.64 336 98 C335.34 98 334.68 98 334 98 C334 99.98 334 101.96 334 104 C333.34 104 332.68 104 332 104 C332 105.32 332 106.64 332 108 C331.34 108 330.68 108 330 108 C330 109.32 330 110.64 330 112 C329.34 112 328.68 112 328 112 C328 113.98 328 115.96 328 118 C327.34 118 326.68 118 326 118 C326 119.32 326 120.64 326 122 C325.34 122 324.68 122 324 122 C324 123.98 324 125.96 324 128 C323.34 128 322.68 128 322 128 C322 129.32 322 130.64 322 132 C321.34 132 320.68 132 320 132 C320 133.32 320 134.64 320 136 C319.34 136 318.68 136 318 136 C318 137.98 318 139.96 318 142 C317.34 142 316.68 142 316 142 C316 143.32 316 144.64 316 146 C315.34 146 314.68 146 314 146 C314 147.98 314 149.96 314 152 C313.34 152 312.68 152 312 152 C312 153.32 312 154.64 312 156 C311.34 156 310.68 156 310 156 C310 157.32 310 158.64 310 160 C309.34 160 308.68 160 308 160 C308 161.98 308 163.96 308 166 C307.34 166 306.68 166 306 166 C306 167.32 306 168.64 306 170 C305.34 170 304.68 170 304 170 C304 171.98 304 173.96 304 176 C303.34 176 302.68 176 302 176 C302 177.32 302 178.64 302 180 C301.34 180 300.68 180 300 180 C300 181.32 300 182.64 300 184 C299.34 184 298.68 184 298 184 C298 185.98 298 187.96 298 190 C297.34 190 296.68 190 296 190 C296 191.32 296 192.64 296 194 C295.34 194 294.68 194 294 194 C294 195.98 294 197.96 294 200 C293.34 200 292.68 200 292 200 C292 201.32 292 202.64 292 204 C291.34 204 290.68 204 290 204 C290 205.32 290 206.64 290 208 C289.34 208 288.68 208 288 208 C288 209.98 288 211.96 288 214 C287.34 214 286.68 214 286 214 C286 215.32 286 216.64 286 218 C285.34 218 284.68 218 284 218 C284 219.98 284 221.96 284 224 C283.34 224 282.68 224 282 224 C282 225.32 282 226.64 282 228 C281.34 228 280.68 228 280 228 C280 229.32 280 230.64 280 232 C279.34 232 278.68 232 278 232 C278 233.98 278 235.96 278 238 C277.34 238 276.68 238 276 238 C276 239.32 276 240.64 276 242 C275.34 242 274.68 242 274 242 C274 243.98 274 245.96 274 248 C273.34 248 272.68 248 272 248 C272 249.32 272 250.64 272 252 C271.34 252 270.68 252 270 252 C270 253.98 270 255.96 270 258 C269.34 258 268.68 258 268 258 C268 259.32 268 260.64 268 262 C267.34 262 266.68 262 266 262 C266 263.32 266 264.64 266 266 C265.34 266 264.68 266 264 266 C264 267.98 264 269.96 264 272 C263.34 272 262.68 272 262 272 C262 273.32 262 274.64 262 276 C261.34 276 260.68 276 260 276 C260 277.98 260 279.96 260 282 C259.34 282 258.68 282 258 282 C258 283.32 258 284.64 258 286 C257.34 286 256.68 286 256 286 C256 287.32 256 288.64 256 290 C255.34 290 254.68 290 254 290 C254 291.98 254 293.96 254 296 C253.34 296 252.68 296 252 296 C252 297.32 252 298.64 252 300 C251.34 300 250.68 300 250 300 C250 301.98 250 303.96 250 306 C249.34 306 248.68 306 248 306 C248 307.32 248 308.64 248 310 C247.34 310 246.68 310 246 310 C246 311.98 246 313.96 246 316 C245.34 316 244.68 316 244 316 C244 317.32 244 318.64 244 320 C243.34 320 242.68 320 242 320 C242 321.32 242 322.64 242 324 C241.34 324 240.68 324 240 324 C240 325.98 240 327.96 240 330 C239.34 330 238.68 330 238 330 C238 331.32 238 332.64 238 334 C237.34 334 236.68 334 236 334 C236 335.98 236 337.96 236 340 C235.34 340 234.68 340 234 340 C234 341.32 234 342.64 234 344 C233.34 344 232.68 344 232 344 C232 345.32 232 346.64 232 348 C231.34 348 230.68 348 230 348 C230 349.98 230 351.96 230 354 C229.34 354 228.68 354 228 354 C228 355.32 228 356.64 228 358 C227.34 358 226.68 358 226 358 C226 359.98 226 361.96 226 364 C225.34 364 224.68 364 224 364 C224 365.32 224 366.64 224 368 C223.34 368 222.68 368 222 368 C222 369.98 222 371.96 222 374 C221.34 374 220.68 374 220 374 C220 375.32 220 376.64 220 378 C219.34 378 218.68 378 218 378 C218 379.32 218 380.64 218 382 C217.34 382 216.68 382 216 382 C216 383.98 216 385.96 216 388 C215.34 388 214.68 388 214 388 C214 389.32 214 390.64 214 392 C213.34 392 212.68 392 212 392 C212 393.98 212 395.96 212 398 C211.34 398 210.68 398 210 398 C210 399.32 210 400.64 210 402 C196.14 402 182.28 402 168 402 C168 400.68 168 399.36 168 398 C167.34 398 166.68 398 166 398 C166 396.68 166 395.36 166 394 C165.34 394 164.68 394 164 394 C164 392.02 164 390.04 164 388 C163.34 388 162.68 388 162 388 C162 386.68 162 385.36 162 384 C161.34 384 160.68 384 160 384 C160 382.68 160 381.36 160 380 C159.34 380 158.68 380 158 380 C158 378.02 158 376.04 158 374 C157.34 374 156.68 374 156 374 C156 372.68 156 371.36 156 370 C155.34 370 154.68 370 154 370 C154 368.02 154 366.04 154 364 C153.34 364 152.68 364 152 364 C152 362.68 152 361.36 152 360 C151.34 360 150.68 360 150 360 C150 358.68 150 357.36 150 356 C149.34 356 148.68 356 148 356 C148 354.02 148 352.04 148 350 C147.34 350 146.68 350 146 350 C146 348.68 146 347.36 146 346 C145.34 346 144.68 346 144 346 C144 344.68 144 343.36 144 342 C143.34 342 142.68 342 142 342 C142 340.02 142 338.04 142 336 C141.34 336 140.68 336 140 336 C140 334.68 140 333.36 140 332 C139.34 332 138.68 332 138 332 C138 330.68 138 329.36 138 328 C137.34 328 136.68 328 136 328 C136 326.02 136 324.04 136 322 C135.34 322 134.68 322 134 322 C134 320.68 134 319.36 134 318 C133.34 318 132.68 318 132 318 C132 316.02 132 314.04 132 312 C131.34 312 130.68 312 130 312 C130 310.68 130 309.36 130 308 C129.34 308 128.68 308 128 308 C128 306.68 128 305.36 128 304 C127.34 304 126.68 304 126 304 C126 302.02 126 300.04 126 298 C125.34 298 124.68 298 124 298 C124 296.68 124 295.36 124 294 C123.34 294 122.68 294 122 294 C122 292.68 122 291.36 122 290 C121.34 290 120.68 290 120 290 C120 288.02 120 286.04 120 284 C119.34 284 118.68 284 118 284 C118 282.68 118 281.36 118 280 C117.34 280 116.68 280 116 280 C116 278.68 116 277.36 116 276 C115.34 276 114.68 276 114 276 C114 274.02 114 272.04 114 270 C113.34 270 112.68 270 112 270 C112 268.68 112 267.36 112 266 C111.34 266 110.68 266 110 266 C110 264.02 110 262.04 110 260 C109.34 260 108.68 260 108 260 C108 258.68 108 257.36 108 256 C107.34 256 106.68 256 106 256 C106 254.68 106 253.36 106 252 C105.34 252 104.68 252 104 252 C104 250.02 104 248.04 104 246 C103.34 246 102.68 246 102 246 C102 244.68 102 243.36 102 242 C101.34 242 100.68 242 100 242 C100 240.68 100 239.36 100 238 C99.34 238 98.68 238 98 238 C98 236.02 98 234.04 98 232 C97.34 232 96.68 232 96 232 C96 230.68 96 229.36 96 228 C95.34 228 94.68 228 94 228 C94 226.68 94 225.36 94 224 C93.34 224 92.68 224 92 224 C92 222.02 92 220.04 92 218 C91.34 218 90.68 218 90 218 C90 216.68 90 215.36 90 214 C89.34 214 88.68 214 88 214 C88 212.02 88 210.04 88 208 C87.34 208 86.68 208 86 208 C86 206.68 86 205.36 86 204 C85.34 204 84.68 204 84 204 C84 202.68 84 201.36 84 200 C83.34 200 82.68 200 82 200 C82 198.02 82 196.04 82 194 C81.34 194 80.68 194 80 194 C80 192.68 80 191.36 80 190 C79.34 190 78.68 190 78 190 C78 188.68 78 187.36 78 186 C77.34 186 76.68 186 76 186 C76 184.02 76 182.04 76 180 C75.34 180 74.68 180 74 180 C74 178.68 74 177.36 74 176 C73.34 176 72.68 176 72 176 C72 174.68 72 173.36 72 172 C71.34 172 70.68 172 70 172 C70 170.02 70 168.04 70 166 C69.34 166 68.68 166 68 166 C68 164.68 68 163.36 68 162 C67.34 162 66.68 162 66 162 C66 160.68 66 159.36 66 158 C65.34 158 64.68 158 64 158 C64 156.02 64 154.04 64 152 C63.34 152 62.68 152 62 152 C62 150.68 62 149.36 62 148 C61.34 148 60.68 148 60 148 C60 146.02 60 144.04 60 142 C59.34 142 58.68 142 58 142 C58 140.68 58 139.36 58 138 C57.34 138 56.68 138 56 138 C56 136.68 56 135.36 56 134 C55.34 134 54.68 134 54 134 C54 132.02 54 130.04 54 128 C53.34 128 52.68 128 52 128 C52 126.68 52 125.36 52 124 C51.34 124 50.68 124 50 124 C50 122.68 50 121.36 50 120 C49.34 120 48.68 120 48 120 C48 118.02 48 116.04 48 114 C47.34 114 46.68 114 46 114 C46 112.68 46 111.36 46 110 C45.34 110 44.68 110 44 110 C44 108.02 44 106.04 44 104 C43.34 104 42.68 104 42 104 C42 102.68 42 101.36 42 100 C41.34 100 40.68 100 40 100 C40 98.68 40 97.36 40 96 C39.34 96 38.68 96 38 96 C38 94.02 38 92.04 38 90 C37.34 90 36.68 90 36 90 C36 88.68 36 87.36 36 86 C35.34 86 34.68 86 34 86 C34 84.68 34 83.36 34 82 C33.34 82 32.68 82 32 82 C32 80.02 32 78.04 32 76 C31.34 76 30.68 76 30 76 C30 74.68 30 73.36 30 72 C29.34 72 28.68 72 28 72 C28 70.68 28 69.36 28 68 C27.34 68 26.68 68 26 68 C26 66.02 26 64.04 26 62 C25.34 62 24.68 62 24 62 C24 60.68 24 59.36 24 58 C23.34 58 22.68 58 22 58 C22 56.68 22 55.36 22 54 C21.34 54 20.68 54 20 54 C20 52.02 20 50.04 20 48 C19.34 48 18.68 48 18 48 C18 46.68 18 45.36 18 44 C17.34 44 16.68 44 16 44 C16 42.02 16 40.04 16 38 C15.34 38 14.68 38 14 38 C14 36.68 14 35.36 14 34 C13.34 34 12.68 34 12 34 C12 32.68 12 31.36 12 30 C11.34 30 10.68 30 10 30 C10 28.02 10 26.04 10 24 C9.34 24 8.68 24 8 24 C8 22.68 8 21.36 8 20 C7.34 20 6.68 20 6 20 C6 18.68 6 17.36 6 16 C5.34 16 4.68 16 4 16 C4 14.02 4 12.04 4 10 C3.34 10 2.68 10 2 10 C2 8.68 2 7.36 2 6 C1.34 6 0.68 6 0 6 C0 4.02 0 2.04 0 0 Z " fill="#E8EBE1" transform="translate(0,4)"/>
<path d="M0 0 C24.75 0 49.5 0 75 0 C75 0.33 75 0.66 75 1 C51.24 1 27.48 1 3 1 C2.01 3.97 1.02 6.94 0 10 C-1.18004482 12.89443695 -2.38181815 15.76220658 -3.6328125 18.625 C-4.15601578 19.83602638 -4.15601578 19.83602638 -4.68978882 21.07151794 C-5.44027483 22.80854375 -6.19223991 24.54493115 -6.94555664 26.2807312 C-8.98653584 30.98631626 -11.01345476 35.69793761 -13.0390625 40.41015625 C-13.45516785 41.37808609 -13.87127319 42.34601593 -14.29998779 43.34327698 C-18.4466656 53.00839425 -22.48639907 62.71651201 -26.5 72.4375 C-27.19700097 74.12460157 -27.89402254 75.81169464 -28.59106445 77.4987793 C-29.64617498 80.05266063 -30.70127679 82.60654545 -31.75611877 85.16053772 C-35.53957144 94.31587668 -39.35358859 103.45838276 -43.17675781 112.59719849 C-43.91017355 114.35062887 -44.6431176 116.10425664 -45.37548828 117.85812378 C-51.81704179 133.28277933 -58.41485157 148.63465366 -65 164 C-33.65 164 -2.3 164 30 164 C30.99 161.03 31.98 158.06 33 155 C33.63794609 153.29161111 34.29156326 151.58887127 34.97021484 149.89624023 C35.32888641 148.99812622 35.68755798 148.10001221 36.05709839 147.17468262 C36.4378653 146.22887329 36.8186322 145.28306396 37.2109375 144.30859375 C37.61579376 143.29680054 38.02065002 142.28500732 38.43777466 141.24255371 C39.74708465 137.97294945 41.06047488 134.7050108 42.375 131.4375 C42.82141846 130.32738556 43.26783691 129.21727112 43.7277832 128.07351685 C47.49677087 118.70204167 47.49677087 118.70204167 49.15875244 114.57542419 C51.5082787 108.73590643 53.83853138 102.88979409 56.13052368 97.02745056 C57.31004411 94.01215663 58.50022963 91.00114378 59.69219971 87.99075317 C60.22819908 86.62835901 60.75881752 85.26383486 61.28387451 83.89718628 C61.99827065 82.03933566 62.7328925 80.18929894 63.46875 78.33984375 C63.86513672 77.32269287 64.26152344 76.30554199 64.66992188 75.25756836 C66 73 66 73 68.15820312 72.16625977 C68.76599609 72.11139404 69.37378906 72.05652832 70 72 C70 72.66 70 73.32 70 74 C69.34 74 68.68 74 68 74 C68 75.32 68 76.64 68 78 C67.34 78 66.68 78 66 78 C66 79.32 66 80.64 66 82 C65.34 82 64.68 82 64 82 C64 83.98 64 85.96 64 88 C63.34 88 62.68 88 62 88 C62 89.32 62 90.64 62 92 C61.34 92 60.68 92 60 92 C60 93.98 60 95.96 60 98 C59.34 98 58.68 98 58 98 C58 99.32 58 100.64 58 102 C57.34 102 56.68 102 56 102 C56 103.98 56 105.96 56 108 C55.34 108 54.68 108 54 108 C54 109.32 54 110.64 54 112 C53.34 112 52.68 112 52 112 C52 113.32 52 114.64 52 116 C51.34 116 50.68 116 50 116 C50 117.98 50 119.96 50 122 C49.34 122 48.68 122 48 122 C48 123.32 48 124.64 48 126 C47.34 126 46.68 126 46 126 C46 127.98 46 129.96 46 132 C45.34 132 44.68 132 44 132 C44 133.32 44 134.64 44 136 C43.34 136 42.68 136 42 136 C42 137.98 42 139.96 42 142 C41.34 142 40.68 142 40 142 C40 143.32 40 144.64 40 146 C39.34 146 38.68 146 38 146 C38 147.98 38 149.96 38 152 C37.34 152 36.68 152 36 152 C36 153.32 36 154.64 36 156 C35.34 156 34.68 156 34 156 C34 157.98 34 159.96 34 162 C33.34 162 32.68 162 32 162 C32 163.32 32 164.64 32 166 C-0.34 166 -32.68 166 -66 166 C-66 163.36 -66 160.72 -66 158 C-65.34 158 -64.68 158 -64 158 C-64 156.68 -64 155.36 -64 154 C-63.34 154 -62.68 154 -62 154 C-62 152.02 -62 150.04 -62 148 C-61.34 148 -60.68 148 -60 148 C-60 146.68 -60 145.36 -60 144 C-59.34 144 -58.68 144 -58 144 C-58 142.02 -58 140.04 -58 138 C-57.34 138 -56.68 138 -56 138 C-56 136.68 -56 135.36 -56 134 C-55.34 134 -54.68 134 -54 134 C-54 132.68 -54 131.36 -54 130 C-53.34 130 -52.68 130 -52 130 C-52 128.02 -52 126.04 -52 124 C-51.34 124 -50.68 124 -50 124 C-50 122.68 -50 121.36 -50 120 C-49.34 120 -48.68 120 -48 120 C-48 118.02 -48 116.04 -48 114 C-47.34 114 -46.68 114 -46 114 C-46 112.68 -46 111.36 -46 110 C-45.34 110 -44.68 110 -44 110 C-44 108.68 -44 107.36 -44 106 C-43.34 106 -42.68 106 -42 106 C-42 104.02 -42 102.04 -42 100 C-41.34 100 -40.68 100 -40 100 C-40 98.68 -40 97.36 -40 96 C-39.34 96 -38.68 96 -38 96 C-38 94.68 -38 93.36 -38 92 C-37.34 92 -36.68 92 -36 92 C-36 90.02 -36 88.04 -36 86 C-35.34 86 -34.68 86 -34 86 C-34 84.68 -34 83.36 -34 82 C-33.34 82 -32.68 82 -32 82 C-32 80.02 -32 78.04 -32 76 C-31.34 76 -30.68 76 -30 76 C-30 74.68 -30 73.36 -30 72 C-29.34 72 -28.68 72 -28 72 C-28 70.68 -28 69.36 -28 68 C-27.34 68 -26.68 68 -26 68 C-26 66.02 -26 64.04 -26 62 C-25.34 62 -24.68 62 -24 62 C-24 60.68 -24 59.36 -24 58 C-23.34 58 -22.68 58 -22 58 C-22 56.02 -22 54.04 -22 52 C-21.34 52 -20.68 52 -20 52 C-20 50.68 -20 49.36 -20 48 C-19.34 48 -18.68 48 -18 48 C-18 46.68 -18 45.36 -18 44 C-17.34 44 -16.68 44 -16 44 C-16 42.02 -16 40.04 -16 38 C-15.34 38 -14.68 38 -14 38 C-14 36.68 -14 35.36 -14 34 C-13.34 34 -12.68 34 -12 34 C-12 32.68 -12 31.36 -12 30 C-11.34 30 -10.68 30 -10 30 C-10 28.02 -10 26.04 -10 24 C-9.34 24 -8.68 24 -8 24 C-8 22.68 -8 21.36 -8 20 C-7.34 20 -6.68 20 -6 20 C-6 18.68 -6 17.36 -6 16 C-5.34 16 -4.68 16 -4 16 C-4 14.02 -4 12.04 -4 10 C-3.34 10 -2.68 10 -2 10 C-2 8.68 -2 7.36 -2 6 C-1.34 6 -0.68 6 0 6 C0 4.02 0 2.04 0 0 Z " fill="#DDE2D6" transform="translate(318,240)"/>
<path d="M0 0 C0.99 0 1.98 0 3 0 C3 1.32 3 2.64 3 4 C3.66 4 4.32 4 5 4 C5 5.32 5 6.64 5 8 C5.66 8 6.32 8 7 8 C7 9.32 7 10.64 7 12 C7.66 12 8.32 12 9 12 C9 13.98 9 15.96 9 18 C9.66 18 10.32 18 11 18 C11 19.32 11 20.64 11 22 C11.66 22 12.32 22 13 22 C13 23.98 13 25.96 13 28 C13.66 28 14.32 28 15 28 C15 29.32 15 30.64 15 32 C15.66 32 16.32 32 17 32 C17 33.32 17 34.64 17 36 C17.66 36 18.32 36 19 36 C19 37.98 19 39.96 19 42 C19.66 42 20.32 42 21 42 C21 43.32 21 44.64 21 46 C21.66 46 22.32 46 23 46 C23 47.32 23 48.64 23 50 C23.66 50 24.32 50 25 50 C25 51.98 25 53.96 25 56 C25.66 56 26.32 56 27 56 C27 57.32 27 58.64 27 60 C27.66 60 28.32 60 29 60 C29 61.32 29 62.64 29 64 C29.66 64 30.32 64 31 64 C31 65.98 31 67.96 31 70 C31.66 70 32.32 70 33 70 C33 71.32 33 72.64 33 74 C33.66 74 34.32 74 35 74 C35 75.32 35 76.64 35 78 C35.66 78 36.32 78 37 78 C37 79.98 37 81.96 37 84 C37.66 84 38.32 84 39 84 C39 85.32 39 86.64 39 88 C39.66 88 40.32 88 41 88 C41 89.98 41 91.96 41 94 C41.66 94 42.32 94 43 94 C43 95.32 43 96.64 43 98 C43.66 98 44.32 98 45 98 C45 99.32 45 100.64 45 102 C45.66 102 46.32 102 47 102 C47 103.98 47 105.96 47 108 C47.66 108 48.32 108 49 108 C49 109.32 49 110.64 49 112 C49.66 112 50.32 112 51 112 C51 113.32 51 114.64 51 116 C51.66 116 52.32 116 53 116 C53 117.98 53 119.96 53 122 C53.66 122 54.32 122 55 122 C55 123.32 55 124.64 55 126 C55.66 126 56.32 126 57 126 C57 127.32 57 128.64 57 130 C57.66 130 58.32 130 59 130 C59 131.98 59 133.96 59 136 C59.66 136 60.32 136 61 136 C61 137.32 61 138.64 61 140 C61.66 140 62.32 140 63 140 C63 141.32 63 142.64 63 144 C63.66 144 64.32 144 65 144 C65 145.98 65 147.96 65 150 C65.66 150 66.32 150 67 150 C67 151.32 67 152.64 67 154 C67.66 154 68.32 154 69 154 C69 155.32 69 156.64 69 158 C69.66 158 70.32 158 71 158 C71 159.98 71 161.96 71 164 C71.66 164 72.32 164 73 164 C73 165.32 73 166.64 73 168 C73.66 168 74.32 168 75 168 C75 169.32 75 170.64 75 172 C75.66 172 76.32 172 77 172 C77 172.66 77 173.32 77 174 C77.66 174 78.32 174 79 174 C79 172.68 79 171.36 79 170 C79.66 170 80.32 170 81 170 C81 168.02 81 166.04 81 164 C81.66 164 82.32 164 83 164 C83 162.68 83 161.36 83 160 C83.66 160 84.32 160 85 160 C85 158.68 85 157.36 85 156 C85.66 156 86.32 156 87 156 C87 154.02 87 152.04 87 150 C87.66 150 88.32 150 89 150 C89 148.68 89 147.36 89 146 C89.66 146 90.32 146 91 146 C91 144.02 91 142.04 91 140 C91.66 140 92.32 140 93 140 C93 138.68 93 137.36 93 136 C93.66 136 94.32 136 95 136 C95 134.02 95 132.04 95 130 C95.66 130 96.32 130 97 130 C97 128.68 97 127.36 97 126 C97.66 126 98.32 126 99 126 C99 124.68 99 123.36 99 122 C99.66 122 100.32 122 101 122 C100.37802885 125.56018595 99.43276285 128.73803131 98.09814453 132.09399414 C97.7074881 133.08174332 97.31683167 134.06949249 96.91433716 135.08717346 C96.49143402 136.14250778 96.06853088 137.1978421 95.6328125 138.28515625 C94.9797261 139.92501747 94.9797261 139.92501747 94.31344604 141.5980072 C93.39262535 143.90613554 92.46956729 146.21337238 91.54443359 148.51977539 C90.13004861 152.04989932 88.7267454 155.58429135 87.32421875 159.11914062 C86.42775315 161.36224698 85.53063946 163.60509445 84.6328125 165.84765625 C84.21395782 166.9050148 83.79510315 167.96237335 83.36355591 169.05177307 C82.96659515 170.03637009 82.5696344 171.0209671 82.16064453 172.03540039 C81.81502472 172.89968155 81.46940491 173.76396271 81.11331177 174.6544342 C79.9820957 177.03772144 78.65400078 178.95247742 77 181 C71.36290093 168.81760257 66.06459416 156.50280487 60.875 144.125 C54.21802343 128.24875494 47.50191838 112.39861121 40.75 96.5625 C40.26430542 95.4231601 39.77861084 94.28382019 39.27819824 93.10995483 C37.31116691 88.49572012 35.34404457 83.88152426 33.37658691 79.26747131 C30.0470285 71.45845082 26.7212866 63.64781514 23.3984375 55.8359375 C22.95004517 54.78182175 22.50165283 53.72770599 22.03967285 52.64164734 C20.32990059 48.62195963 18.62022717 44.60222999 16.91101074 40.58230591 C15.75602683 37.86596262 14.60071299 35.14975987 13.4453125 32.43359375 C13.08175659 31.57844681 12.71820068 30.72329987 12.34362793 29.84223938 C10.38350222 25.2356003 8.41362604 20.63334522 6.43261719 16.03564453 C5.80430496 14.57590965 5.80430496 14.57590965 5.16329956 13.08668518 C4.35558157 11.21143788 3.54633396 9.33684851 2.73538208 7.46299744 C2.37652924 6.62966385 2.01767639 5.79633026 1.64794922 4.93774414 C1.32897675 4.19964005 1.01000427 3.46153595 0.68136597 2.70106506 C0 1 0 1 0 0 Z " fill="#E9ECE2" transform="translate(113,0)"/>
<path d="M0 0 C2.64 0 5.28 0 8 0 C8 0.66 8 1.32 8 2 C10.64 2 13.28 2 16 2 C16 2.66 16 3.32 16 4 C17.32 4 18.64 4 20 4 C20 4.66 20 5.32 20 6 C21.98 6 23.96 6 26 6 C26 6.66 26 7.32 26 8 C27.98 8 29.96 8 32 8 C32 8.66 32 9.32 32 10 C33.32 10 34.64 10 36 10 C36 10.66 36 11.32 36 12 C37.32 12 38.64 12 40 12 C40 12.66 40 13.32 40 14 C41.32 14 42.64 14 44 14 C44 14.66 44 15.32 44 16 C45.32 16 46.64 16 48 16 C48 16.66 48 17.32 48 18 C49.32 18 50.64 18 52 18 C52 18.66 52 19.32 52 20 C52.66 20 53.32 20 54 20 C54 20.66 54 21.32 54 22 C55.32 22 56.64 22 58 22 C58 22.66 58 23.32 58 24 C59.32 24 60.64 24 62 24 C62 24.66 62 25.32 62 26 C62.66 26 63.32 26 64 26 C64 26.66 64 27.32 64 28 C64.66 28 65.32 28 66 28 C66 28.66 66 29.32 66 30 C67.32 30 68.64 30 70 30 C70 30.66 70 31.32 70 32 C70.66 32 71.32 32 72 32 C72 32.66 72 33.32 72 34 C72.66 34 73.32 34 74 34 C74 34.66 74 35.32 74 36 C75.32 36 76.64 36 78 36 C78 36.66 78 37.32 78 38 C78.66 38 79.32 38 80 38 C80 38.66 80 39.32 80 40 C80.66 40 81.32 40 82 40 C82 40.66 82 41.32 82 42 C82.66 42 83.32 42 84 42 C84 42.66 84 43.32 84 44 C84.66 44 85.32 44 86 44 C86 44.66 86 45.32 86 46 C86.66 46 87.32 46 88 46 C88 46.66 88 47.32 88 48 C88.66 48 89.32 48 90 48 C90 49.32 90 50.64 90 52 C90.66 52 91.32 52 92 52 C92 52.66 92 53.32 92 54 C92.66 54 93.32 54 94 54 C94 54.66 94 55.32 94 56 C94.66 56 95.32 56 96 56 C96 56.66 96 57.32 96 58 C96.66 58 97.32 58 98 58 C98 59.32 98 60.64 98 62 C98.66 62 99.32 62 100 62 C100 62.66 100 63.32 100 64 C100.66 64 101.32 64 102 64 C102 65.32 102 66.64 102 68 C102.66 68 103.32 68 104 68 C104 69.32 104 70.64 104 72 C104.66 72 105.32 72 106 72 C106 72.66 106 73.32 106 74 C106.66 74 107.32 74 108 74 C108 75.32 108 76.64 108 78 C108.66 78 109.32 78 110 78 C110 79.32 110 80.64 110 82 C110.66 82 111.32 82 112 82 C112 83.98 112 85.96 112 88 C112.66 88 113.32 88 114 88 C114 89.32 114 90.64 114 92 C114.66 92 115.32 92 116 92 C116 93.98 116 95.96 116 98 C116.66 98 117.32 98 118 98 C118 99.98 118 101.96 118 104 C118.66 104 119.32 104 120 104 C120 106.64 120 109.28 120 112 C120.66 112 121.32 112 122 112 C122 115.3 122 118.6 122 122 C122.66 122 123.32 122 124 122 C124 140.48 124 158.96 124 178 C123.34 178 122.68 178 122 178 C122 180.64 122 183.28 122 186 C121.34 186 120.68 186 120 186 C120.14235457 184.27054347 120.28904382 182.54144346 120.4375 180.8125 C120.55931641 179.36810547 120.55931641 179.36810547 120.68359375 177.89453125 C121 175 121 175 121.50268555 172.84155273 C122.15562753 169.11077622 122.220675 165.41709615 122.2734375 161.640625 C122.28596558 160.82712585 122.29849365 160.01362671 122.31140137 159.17547607 C122.61568087 134.63084614 121.24220172 111.71383529 111 89 C110.71817871 88.35836914 110.43635742 87.71673828 110.14599609 87.05566406 C94.57274085 52.09108326 64.13280747 24.96283513 28.82519531 10.71923828 C19.34979001 7.1034413 9.79317609 3.65577657 0 1 C0 0.67 0 0.34 0 0 Z " fill="#E9EAE0" transform="translate(432,6)"/>
<path d="M0 0 C0.33 0 0.66 0 1 0 C1 3.3 1 6.6 1 10 C0.34 10 -0.32 10 -1 10 C-1 11.98 -1 13.96 -1 16 C-1.66 16 -2.32 16 -3 16 C-3 17.98 -3 19.96 -3 22 C-3.66 22 -4.32 22 -5 22 C-5 23.98 -5 25.96 -5 28 C-5.66 28 -6.32 28 -7 28 C-7 29.32 -7 30.64 -7 32 C-7.66 32 -8.32 32 -9 32 C-9 33.32 -9 34.64 -9 36 C-9.66 36 -10.32 36 -11 36 C-11 37.32 -11 38.64 -11 40 C-11.66 40 -12.32 40 -13 40 C-13 41.32 -13 42.64 -13 44 C-13.66 44 -14.32 44 -15 44 C-15 45.32 -15 46.64 -15 48 C-15.66 48 -16.32 48 -17 48 C-17 48.66 -17 49.32 -17 50 C-17.66 50 -18.32 50 -19 50 C-19 51.32 -19 52.64 -19 54 C-19.66 54 -20.32 54 -21 54 C-21 54.66 -21 55.32 -21 56 C-21.66 56 -22.32 56 -23 56 C-23 57.32 -23 58.64 -23 60 C-23.66 60 -24.32 60 -25 60 C-25 60.66 -25 61.32 -25 62 C-25.66 62 -26.32 62 -27 62 C-27 62.66 -27 63.32 -27 64 C-27.66 64 -28.32 64 -29 64 C-29 64.66 -29 65.32 -29 66 C-29.66 66 -30.32 66 -31 66 C-31 67.32 -31 68.64 -31 70 C-31.66 70 -32.32 70 -33 70 C-33 70.66 -33 71.32 -33 72 C-33.66 72 -34.32 72 -35 72 C-35 72.66 -35 73.32 -35 74 C-35.66 74 -36.32 74 -37 74 C-37 74.66 -37 75.32 -37 76 C-37.66 76 -38.32 76 -39 76 C-39 76.66 -39 77.32 -39 78 C-39.66 78 -40.32 78 -41 78 C-41 78.66 -41 79.32 -41 80 C-41.66 80 -42.32 80 -43 80 C-43 80.66 -43 81.32 -43 82 C-44.32 82 -45.64 82 -47 82 C-47 82.66 -47 83.32 -47 84 C-47.66 84 -48.32 84 -49 84 C-49 84.66 -49 85.32 -49 86 C-49.66 86 -50.32 86 -51 86 C-51 86.66 -51 87.32 -51 88 C-51.66 88 -52.32 88 -53 88 C-53 88.66 -53 89.32 -53 90 C-54.32 90 -55.64 90 -57 90 C-57 90.66 -57 91.32 -57 92 C-57.66 92 -58.32 92 -59 92 C-59 92.66 -59 93.32 -59 94 C-60.32 94 -61.64 94 -63 94 C-63 94.66 -63 95.32 -63 96 C-64.32 96 -65.64 96 -67 96 C-67 96.66 -67 97.32 -67 98 C-67.66 98 -68.32 98 -69 98 C-69 98.66 -69 99.32 -69 100 C-70.32 100 -71.64 100 -73 100 C-73 100.66 -73 101.32 -73 102 C-74.32 102 -75.64 102 -77 102 C-77 102.66 -77 103.32 -77 104 C-78.32 104 -79.64 104 -81 104 C-81 104.66 -81 105.32 -81 106 C-82.32 106 -83.64 106 -85 106 C-85 106.66 -85 107.32 -85 108 C-86.98 108 -88.96 108 -91 108 C-91 108.66 -91 109.32 -91 110 C-92.98 110 -94.96 110 -97 110 C-97 110.66 -97 111.32 -97 112 C-98.98 112 -100.96 112 -103 112 C-103 112.66 -103 113.32 -103 114 C-104.98 114 -106.96 114 -109 114 C-109 114.66 -109 115.32 -109 116 C-111.64 116 -114.28 116 -117 116 C-117 116.66 -117 117.32 -117 118 C-121.29 118 -125.58 118 -130 118 C-130 117.67 -130 117.34 -130 117 C-128.89785156 116.76925781 -127.79570312 116.53851563 -126.66015625 116.30078125 C-83.28100655 107.06039508 -46.34371721 87.11774054 -20.91796875 49.95703125 C-10.88532429 34.34409934 -4.50291723 17.94968981 0 0 Z " fill="#EBEBE1" transform="translate(551,192)"/>
<path d="M0 0 C0.99 0 1.98 0 3 0 C3 0.66 3 1.32 3 2 C2.34 2 1.68 2 1 2 C1 3.32 1 4.64 1 6 C0.34 6 -0.32 6 -1 6 C-1 7.32 -1 8.64 -1 10 C-1.66 10 -2.32 10 -3 10 C-3 11.98 -3 13.96 -3 16 C-3.66 16 -4.32 16 -5 16 C-5 17.32 -5 18.64 -5 20 C-5.66 20 -6.32 20 -7 20 C-7 21.98 -7 23.96 -7 26 C-7.66 26 -8.32 26 -9 26 C-9 27.32 -9 28.64 -9 30 C-9.66 30 -10.32 30 -11 30 C-11 31.98 -11 33.96 -11 36 C-11.66 36 -12.32 36 -13 36 C-13 37.32 -13 38.64 -13 40 C-13.66 40 -14.32 40 -15 40 C-15 41.32 -15 42.64 -15 44 C-15.66 44 -16.32 44 -17 44 C-17 45.98 -17 47.96 -17 50 C-17.66 50 -18.32 50 -19 50 C-19 51.32 -19 52.64 -19 54 C-19.66 54 -20.32 54 -21 54 C-21 55.98 -21 57.96 -21 60 C-21.66 60 -22.32 60 -23 60 C-23 61.32 -23 62.64 -23 64 C-23.66 64 -24.32 64 -25 64 C-25 65.98 -25 67.96 -25 70 C-25.66 70 -26.32 70 -27 70 C-27 71.32 -27 72.64 -27 74 C-27.66 74 -28.32 74 -29 74 C-29 75.98 -29 77.96 -29 80 C-29.66 80 -30.32 80 -31 80 C-31 81.32 -31 82.64 -31 84 C-31.66 84 -32.32 84 -33 84 C-33 85.98 -33 87.96 -33 90 C-33.66 90 -34.32 90 -35 90 C-35 91.32 -35 92.64 -35 94 C-67.34 94 -99.68 94 -133 94 C-133 93.67 -133 93.34 -133 93 C-101.32 93 -69.64 93 -37 93 C-36.67 91.35 -36.34 89.7 -36 88 C-35.30966325 86.06802308 -34.57316335 84.15224723 -33.8046875 82.25 C-33.34352539 81.10257324 -32.88236328 79.95514648 -32.40722656 78.77294922 C-31.89657669 77.51526199 -31.38583161 76.25761342 -30.875 75 C-30.34306963 73.68129543 -29.81150258 72.36244424 -29.28027344 71.04345703 C-27.83380598 67.45589175 -26.38149097 63.87072323 -24.92736816 60.28625488 C-23.9817955 57.95512017 -23.03715994 55.62360767 -22.09277344 53.29199219 C-19.5039946 46.90105649 -16.91479059 40.51029837 -14.31933594 34.12207031 C-10.56106771 24.86975436 -6.81995025 15.61124974 -3.16894531 6.31591797 C-1.10734016 1.10734016 -1.10734016 1.10734016 0 0 Z " fill="#EFF0E8" transform="translate(385,312)"/>
<path d="M0 0 C0.66 0 1.32 0 2 0 C-0.11297154 6.63354906 -2.56183187 13.08368354 -5.18359375 19.53125 C-5.5915065 20.54054565 -5.99941925 21.54984131 -6.41969299 22.58972168 C-7.75619041 25.89427745 -9.09673668 29.197173 -10.4375 32.5 C-11.37190123 34.80722832 -12.30614376 37.11452091 -13.24023438 39.421875 C-38.19016556 101.01577124 -38.19016556 101.01577124 -47 122 C-47.33 122 -47.66 122 -48 122 C-48 120.02 -48 118.04 -48 116 C-47.34 116 -46.68 116 -46 116 C-46 114.02 -46 112.04 -46 110 C-45.34 110 -44.68 110 -44 110 C-44 108.68 -44 107.36 -44 106 C-43.34 106 -42.68 106 -42 106 C-42 104.02 -42 102.04 -42 100 C-41.34 100 -40.68 100 -40 100 C-40 98.68 -40 97.36 -40 96 C-39.34 96 -38.68 96 -38 96 C-38 94.68 -38 93.36 -38 92 C-37.34 92 -36.68 92 -36 92 C-36 90.02 -36 88.04 -36 86 C-35.34 86 -34.68 86 -34 86 C-34 84.68 -34 83.36 -34 82 C-33.34 82 -32.68 82 -32 82 C-32 80.02 -32 78.04 -32 76 C-31.34 76 -30.68 76 -30 76 C-30 74.68 -30 73.36 -30 72 C-29.34 72 -28.68 72 -28 72 C-28 70.02 -28 68.04 -28 66 C-27.34 66 -26.68 66 -26 66 C-26 64.68 -26 63.36 -26 62 C-25.34 62 -24.68 62 -24 62 C-24 60.02 -24 58.04 -24 56 C-23.34 56 -22.68 56 -22 56 C-22 54.68 -22 53.36 -22 52 C-21.34 52 -20.68 52 -20 52 C-20 50.02 -20 48.04 -20 46 C-19.34 46 -18.68 46 -18 46 C-18 44.68 -18 43.36 -18 42 C-17.34 42 -16.68 42 -16 42 C-16 40.68 -16 39.36 -16 38 C-15.34 38 -14.68 38 -14 38 C-14 36.02 -14 34.04 -14 32 C-13.34 32 -12.68 32 -12 32 C-12 30.68 -12 29.36 -12 28 C-11.34 28 -10.68 28 -10 28 C-10 26.02 -10 24.04 -10 22 C-9.34 22 -8.68 22 -8 22 C-8 20.68 -8 19.36 -8 18 C-7.34 18 -6.68 18 -6 18 C-6 16.02 -6 14.04 -6 12 C-5.34 12 -4.68 12 -4 12 C-4 10.68 -4 9.36 -4 8 C-3.34 8 -2.68 8 -2 8 C-2 6.02 -2 4.04 -2 2 C-1.34 2 -0.68 2 0 2 C0 1.34 0 0.68 0 0 Z " fill="#EAEDE4" transform="translate(262,0)"/>
<path d="M0 0 C24.75 0 49.5 0 75 0 C75 0.33 75 0.66 75 1 C51.24 1 27.48 1 3 1 C2.01 3.97 1.02 6.94 0 10 C-0.58599011 11.50889912 -1.1912906 13.01081044 -1.83422852 14.49633789 C-2.16242081 15.25982544 -2.4906131 16.02331299 -2.82875061 16.80993652 C-3.17530197 17.60613403 -3.52185333 18.40233154 -3.87890625 19.22265625 C-4.24757309 20.07839233 -4.61623993 20.93412842 -4.99607849 21.8157959 C-6.18155811 24.56614723 -7.37190574 27.31435939 -8.5625 30.0625 C-10.19081307 33.83246769 -11.81662375 37.60350949 -13.44140625 41.375 C-13.83848785 42.29608047 -14.23556946 43.21716095 -14.64468384 44.16615295 C-16.91743151 49.44851177 -19.15758829 54.74211926 -21.33984375 60.0625 C-21.80124756 61.18648193 -22.26265137 62.31046387 -22.73803711 63.46850586 C-23.55846674 65.479979 -24.37339354 67.49370847 -25.18188477 69.51000977 C-25.53436279 70.37424561 -25.88684082 71.23848145 -26.25 72.12890625 C-26.54390625 72.86181885 -26.8378125 73.59473145 -27.140625 74.34985352 C-28 76 -28 76 -30 77 C-30 75.35 -30 73.7 -30 72 C-29.34 72 -28.68 72 -28 72 C-28 70.68 -28 69.36 -28 68 C-27.34 68 -26.68 68 -26 68 C-26 66.02 -26 64.04 -26 62 C-25.34 62 -24.68 62 -24 62 C-24 60.68 -24 59.36 -24 58 C-23.34 58 -22.68 58 -22 58 C-22 56.02 -22 54.04 -22 52 C-21.34 52 -20.68 52 -20 52 C-20 50.68 -20 49.36 -20 48 C-19.34 48 -18.68 48 -18 48 C-18 46.68 -18 45.36 -18 44 C-17.34 44 -16.68 44 -16 44 C-16 42.02 -16 40.04 -16 38 C-15.34 38 -14.68 38 -14 38 C-14 36.68 -14 35.36 -14 34 C-13.34 34 -12.68 34 -12 34 C-12 32.68 -12 31.36 -12 30 C-11.34 30 -10.68 30 -10 30 C-10 28.02 -10 26.04 -10 24 C-9.34 24 -8.68 24 -8 24 C-8 22.68 -8 21.36 -8 20 C-7.34 20 -6.68 20 -6 20 C-6 18.68 -6 17.36 -6 16 C-5.34 16 -4.68 16 -4 16 C-4 14.02 -4 12.04 -4 10 C-3.34 10 -2.68 10 -2 10 C-2 8.68 -2 7.36 -2 6 C-1.34 6 -0.68 6 0 6 C0 4.02 0 2.04 0 0 Z " fill="#EEF1E9" transform="translate(318,240)"/>
<path d="M0 0 C0.66 0 1.32 0 2 0 C-0.19910002 18.66991041 -11.64924162 37.24566214 -26 49 C-36.91193604 56.44055183 -52.59485733 64.81243289 -66 64 C-66 63.34 -66 62.68 -66 62 C-64.02 62 -62.04 62 -60 62 C-60 61.34 -60 60.68 -60 60 C-57.36 60 -54.72 60 -52 60 C-52 59.34 -52 58.68 -52 58 C-50.02 58 -48.04 58 -46 58 C-46 57.34 -46 56.68 -46 56 C-44.68 56 -43.36 56 -42 56 C-42 55.34 -42 54.68 -42 54 C-40.68 54 -39.36 54 -38 54 C-38 53.34 -38 52.68 -38 52 C-36.68 52 -35.36 52 -34 52 C-34 51.34 -34 50.68 -34 50 C-33.34 50 -32.68 50 -32 50 C-32 49.34 -32 48.68 -32 48 C-30.68 48 -29.36 48 -28 48 C-28 47.34 -28 46.68 -28 46 C-27.34 46 -26.68 46 -26 46 C-26 45.34 -26 44.68 -26 44 C-25.34 44 -24.68 44 -24 44 C-24 43.34 -24 42.68 -24 42 C-23.34 42 -22.68 42 -22 42 C-22 41.34 -22 40.68 -22 40 C-21.34 40 -20.68 40 -20 40 C-20 39.34 -20 38.68 -20 38 C-19.34 38 -18.68 38 -18 38 C-18 37.34 -18 36.68 -18 36 C-17.34 36 -16.68 36 -16 36 C-16 34.68 -16 33.36 -16 32 C-15.34 32 -14.68 32 -14 32 C-14 31.34 -14 30.68 -14 30 C-13.34 30 -12.68 30 -12 30 C-12 28.68 -12 27.36 -12 26 C-11.34 26 -10.68 26 -10 26 C-10 25.34 -10 24.68 -10 24 C-9.34 24 -8.68 24 -8 24 C-8 22.68 -8 21.36 -8 20 C-7.34 20 -6.68 20 -6 20 C-6 18.68 -6 17.36 -6 16 C-5.34 16 -4.68 16 -4 16 C-4 14.02 -4 12.04 -4 10 C-3.34 10 -2.68 10 -2 10 C-2 8.68 -2 7.36 -2 6 C-1.34 6 -0.68 6 0 6 C0 4.02 0 2.04 0 0 Z " fill="#ECEEE4" transform="translate(460,176)"/>
<path d="M0 0 C5.18146325 0.57124828 9.1675522 2.2329155 13.75 4.5625 C14.45592285 4.92110107 15.1618457 5.27970215 15.88916016 5.64916992 C36.03107509 16.1855434 47.97647321 34.12716148 55.22265625 55.109375 C56 58 56 58 56 62 C55.34 62 54.68 62 54 62 C54 60.02 54 58.04 54 56 C53.34 56 52.68 56 52 56 C52 54.02 52 52.04 52 50 C51.34 50 50.68 50 50 50 C50 48.68 50 47.36 50 46 C49.34 46 48.68 46 48 46 C48 44.68 48 43.36 48 42 C47.34 42 46.68 42 46 42 C46 40.68 46 39.36 46 38 C45.34 38 44.68 38 44 38 C44 37.34 44 36.68 44 36 C43.34 36 42.68 36 42 36 C42 34.68 42 33.36 42 32 C41.34 32 40.68 32 40 32 C40 31.34 40 30.68 40 30 C39.34 30 38.68 30 38 30 C38 29.34 38 28.68 38 28 C37.34 28 36.68 28 36 28 C36 26.68 36 25.36 36 24 C35.34 24 34.68 24 34 24 C34 23.34 34 22.68 34 22 C33.34 22 32.68 22 32 22 C32 21.34 32 20.68 32 20 C31.34 20 30.68 20 30 20 C30 19.34 30 18.68 30 18 C29.34 18 28.68 18 28 18 C28 17.34 28 16.68 28 16 C27.34 16 26.68 16 26 16 C26 15.34 26 14.68 26 14 C24.68 14 23.36 14 22 14 C22 13.34 22 12.68 22 12 C21.34 12 20.68 12 20 12 C20 11.34 20 10.68 20 10 C18.68 10 17.36 10 16 10 C16 9.34 16 8.68 16 8 C14.68 8 13.36 8 12 8 C12 7.34 12 6.68 12 6 C10.68 6 9.36 6 8 6 C8 5.34 8 4.68 8 4 C6.68 4 5.36 4 4 4 C4 3.34 4 2.68 4 2 C2.68 2 1.36 2 0 2 C0 1.34 0 0.68 0 0 Z " fill="#EAEBE1" transform="translate(406,74)"/>
<path d="M0 0 C0.33 0.66 0.66 1.32 1 2 C1.66 2 2.32 2 3 2 C3 3.32 3 4.64 3 6 C3.66 6 4.32 6 5 6 C5 7.98 5 9.96 5 12 C5.66 12 6.32 12 7 12 C7 13.98 7 15.96 7 18 C7.66 18 8.32 18 9 18 C9 20.64 9 23.28 9 26 C9.66 26 10.32 26 11 26 C11 29.3 11 32.6 11 36 C11.66 36 12.32 36 13 36 C13 54.48 13 72.96 13 92 C12.34 92 11.68 92 11 92 C11 94.64 11 97.28 11 100 C10.34 100 9.68 100 9 100 C9.14235457 98.27054347 9.28904382 96.54144346 9.4375 94.8125 C9.55931641 93.36810547 9.55931641 93.36810547 9.68359375 91.89453125 C10 89 10 89 10.50268555 86.84155273 C11.15562753 83.11077622 11.220675 79.41709615 11.2734375 75.640625 C11.29222961 74.42037628 11.29222961 74.42037628 11.31140137 73.17547607 C11.60346541 49.61620253 10.42879221 27.92706384 1.13671875 5.9140625 C0 3 0 3 0 0 Z " fill="#EDEFE6" transform="translate(543,92)"/>
<path d="M0 0 C28.71 0 57.42 0 87 0 C87 0.66 87 1.32 87 2 C89.64 2 92.28 2 95 2 C95 2.66 95 3.32 95 4 C93.91643219 3.86042877 92.83286438 3.72085754 91.71646118 3.57705688 C80.58070118 2.20453584 69.610713 1.6659782 58.3984375 1.5859375 C56.69779595 1.56715813 54.99716305 1.54758014 53.29653931 1.5272522 C48.88766665 1.47663788 44.478764 1.43664129 40.06976318 1.39910889 C35.54383365 1.35861734 31.01802109 1.30773477 26.4921875 1.2578125 C17.66153923 1.16189428 8.83083143 1.07722974 0 1 C0 0.67 0 0.34 0 0 Z " fill="#2A5A40" transform="translate(327,0)"/>
<path d="M0 0 C0.33 0 0.66 0 1 0 C1 3.3 1 6.6 1 10 C0.34 10 -0.32 10 -1 10 C-1 11.98 -1 13.96 -1 16 C-1.66 16 -2.32 16 -3 16 C-3 17.98 -3 19.96 -3 22 C-3.66 22 -4.32 22 -5 22 C-5 23.98 -5 25.96 -5 28 C-5.66 28 -6.32 28 -7 28 C-7 29.32 -7 30.64 -7 32 C-7.66 32 -8.32 32 -9 32 C-9 33.32 -9 34.64 -9 36 C-9.66 36 -10.32 36 -11 36 C-11 37.32 -11 38.64 -11 40 C-11.99 39.67 -12.98 39.34 -14 39 C-13.75354736 38.45811035 -13.50709473 37.9162207 -13.25317383 37.35791016 C-7.72609194 25.10674942 -3.1746484 13.06551275 0 0 Z " fill="#E7EAE1" transform="translate(551,192)"/>
<path d="M0 0 C0.33 0 0.66 0 1 0 C1 12.54 1 25.08 1 38 C0.34 38 -0.32 38 -1 38 C-1 40.64 -1 43.28 -1 46 C-1.66 46 -2.32 46 -3 46 C-2.85764543 44.27054347 -2.71095618 42.54144346 -2.5625 40.8125 C-2.48128906 39.84957031 -2.40007813 38.88664062 -2.31640625 37.89453125 C-2 35 -2 35 -1.5 32.75976562 C-0.90365669 29.46823008 -0.78319838 26.29308831 -0.68359375 22.94921875 C-0.66281265 22.29041214 -0.64203156 21.63160553 -0.62062073 20.95283508 C-0.55564511 18.86448815 -0.49648425 16.77602388 -0.4375 14.6875 C-0.39426521 13.2649622 -0.3506494 11.84243594 -0.30664062 10.41992188 C-0.20001784 6.94673703 -0.09860652 3.47342274 0 0 Z " fill="#C9D3C7" transform="translate(555,146)"/>
<path d="M0 0 C0.66 0.33 1.32 0.66 2 1 C1.01 2.485 1.01 2.485 0 4 C-1.32 4 -2.64 4 -4 4 C-4 4.66 -4 5.32 -4 6 C-5.32 6 -6.64 6 -8 6 C-8 6.66 -8 7.32 -8 8 C-9.32 8 -10.64 8 -12 8 C-12 8.66 -12 9.32 -12 10 C-13.98 10 -15.96 10 -18 10 C-18 10.66 -18 11.32 -18 12 C-19.98 12 -21.96 12 -24 12 C-21.35363544 9.90213567 -18.836776 8.3370288 -15.7421875 6.9921875 C-14.95199219 6.64542969 -14.16179687 6.29867188 -13.34765625 5.94140625 C-12.53167969 5.58949219 -11.71570313 5.23757813 -10.875 4.875 C-9.24728821 4.16430894 -7.61967909 3.45338268 -5.9921875 2.7421875 C-5.27401855 2.4313623 -4.55584961 2.12053711 -3.81591797 1.80029297 C-2.52893292 1.23310596 -1.25794487 0.62897244 0 0 Z " fill="#EDEEE4" transform="translate(478,290)"/>
<path d="M0 0 C2.44284508 3.66426762 4.04124075 7.4543605 5.75 11.5 C6.09160156 12.27214844 6.43320312 13.04429688 6.78515625 13.83984375 C7.09839844 14.58363281 7.41164063 15.32742187 7.734375 16.09375 C8.02538086 16.77115234 8.31638672 17.44855469 8.61621094 18.14648438 C8.74286133 18.75814453 8.86951172 19.36980469 9 20 C8.34 20.99 7.68 21.98 7 23 C7 21.68 7 20.36 7 19 C6.34 19 5.68 19 5 19 C5 17.68 5 16.36 5 15 C4.34 15 3.68 15 3 15 C3 13.02 3 11.04 3 9 C2.34 9 1.68 9 1 9 C1 7.68 1 6.36 1 5 C0.34 5 -0.32 5 -1 5 C-0.67 3.35 -0.34 1.7 0 0 Z " fill="#E3E6DC" transform="translate(45,109)"/>
<path d="M0 0 C2.56278699 -0.05420701 5.12441483 -0.09377007 7.6875 -0.125 C8.40873047 -0.14175781 9.12996094 -0.15851563 9.87304688 -0.17578125 C14.04876781 -0.21391569 17.2494138 0.1210081 21 2 C21 2.99 21 3.98 21 5 C15.555 4.505 15.555 4.505 10 4 C10 3.34 10 2.68 10 2 C6.7 2 3.4 2 0 2 C0 1.34 0 0.68 0 0 Z " fill="#788F7E" transform="translate(390,70)"/>
<path d="M0 0 C0.99 0 1.98 0 3 0 C0.94235079 6.45353615 -1.42383482 12.7361263 -4 19 C-4.66 18.67 -5.32 18.34 -6 18 C-6 16.68 -6 15.36 -6 14 C-5.34 14 -4.68 14 -4 14 C-4 12.68 -4 11.36 -4 10 C-3.34 10 -2.68 10 -2 10 C-2 8.02 -2 6.04 -2 4 C-1.34 4 -0.68 4 0 4 C0 2.68 0 1.36 0 0 Z " fill="#E5E8DE" transform="translate(244,42)"/>
<path d="M0 0 C6.27 0 12.54 0 19 0 C19 0.66 19 1.32 19 2 C21.64 2 24.28 2 27 2 C27 2.66 27 3.32 27 4 C13.635 2.515 13.635 2.515 0 1 C0 0.67 0 0.34 0 0 Z " fill="#E6EBE4" transform="translate(395,0)"/>
<path d="M0 0 C0.33 0.66 0.66 1.32 1 2 C0.08953645 4.55281099 -0.87478147 7.01179689 -1.9375 9.5 C-4.12053954 14.0989163 -4.12053954 14.0989163 -5 19 C-5.66 19 -6.32 19 -7 19 C-7.66 21.31 -8.32 23.62 -9 26 C-10.31325296 22.38829358 -9.69055821 20.51238671 -8.1640625 17.05078125 C-7.75929688 16.12072266 -7.35453125 15.19066406 -6.9375 14.23242188 C-6.504375 13.26884766 -6.07125 12.30527344 -5.625 11.3125 C-5.19960938 10.33732422 -4.77421875 9.36214844 -4.3359375 8.35742188 C-1.17869759 1.17869759 -1.17869759 1.17869759 0 0 Z " fill="#0D3017" transform="translate(313,261)"/>
<path d="M0 0 C1.65 0.33 3.3 0.66 5 1 C2.07382565 2.9507829 -0.02044581 3.71513462 -3.375 4.625 C-4.31085938 4.88539063 -5.24671875 5.14578125 -6.2109375 5.4140625 C-8.90123635 5.97925133 -11.26144571 6.10954217 -14 6 C-14 5.34 -14 4.68 -14 4 C-12.02 4 -10.04 4 -8 4 C-8 3.34 -8 2.68 -8 2 C-5.36 2 -2.72 2 0 2 C0 1.34 0 0.68 0 0 Z " fill="#E6EAE0" transform="translate(408,234)"/>
<path d="M0 0 C0.91625283 2.52401722 1.09936056 3.70741062 0.22265625 6.2890625 C-0.16019531 7.05992187 -0.54304688 7.83078125 -0.9375 8.625 C-2.53466643 11.67883814 -2.53466643 11.67883814 -3 15 C-3.66 15 -4.32 15 -5 15 C-5.66 16.98 -6.32 18.96 -7 21 C-8.13088362 17.60734913 -7.92853224 17.15824799 -6.6015625 14.0234375 C-6.12976563 12.89421875 -6.12976563 12.89421875 -5.6484375 11.7421875 C-5.14183594 10.57042969 -5.14183594 10.57042969 -4.625 9.375 C-4.295 8.58609375 -3.965 7.7971875 -3.625 6.984375 C-1.16545759 1.16545759 -1.16545759 1.16545759 0 0 Z " fill="#0F3119" transform="translate(295,303)"/>
<path d="M0 0 C1 2 1 2 0.44140625 3.875 C0.15136719 4.57625 -0.13867188 5.2775 -0.4375 6 C-1.66557525 8.90915074 -1.66557525 8.90915074 -2 12 C-2.66 12 -3.32 12 -4 12 C-4.99 14.97 -5.98 17.94 -7 21 C-8.13088362 17.60734913 -7.92853224 17.15824799 -6.6015625 14.0234375 C-6.12976563 12.89421875 -6.12976563 12.89421875 -5.6484375 11.7421875 C-5.14183594 10.57042969 -5.14183594 10.57042969 -4.625 9.375 C-4.295 8.58609375 -3.965 7.7971875 -3.625 6.984375 C-1.16545759 1.16545759 -1.16545759 1.16545759 0 0 Z " fill="#0E2E17" transform="translate(204,149)"/>
<path d="M0 0 C0.66 0 1.32 0 2 0 C2.35281338 4.1970092 1.64185432 6.06522073 -1 9.3125 C-1.556875 10.00988281 -2.11375 10.70726562 -2.6875 11.42578125 C-3.120625 11.94527344 -3.55375 12.46476563 -4 13 C-4.66 12.67 -5.32 12.34 -6 12 C-6 11.34 -6 10.68 -6 10 C-5.34 10 -4.68 10 -4 10 C-4 8.68 -4 7.36 -4 6 C-3.34 6 -2.68 6 -2 6 C-2 5.34 -2 4.68 -2 4 C-1.34 4 -0.68 4 0 4 C0 2.68 0 1.36 0 0 Z " fill="#E2E3D8" transform="translate(448,202)"/>
<path d="M0 0 C0.33 0.99 0.66 1.98 1 3 C0.34 3 -0.32 3 -1 3 C-1 3.66 -1 4.32 -1 5 C-1.66 5 -2.32 5 -3 5 C-3 5.66 -3 6.32 -3 7 C-3.66 7 -4.32 7 -5 7 C-5 7.66 -5 8.32 -5 9 C-5.99 8.67 -6.98 8.34 -8 8 C-7.23883449 6.84772177 -6.46567307 5.7033614 -5.6875 4.5625 C-5.25824219 3.92441406 -4.82898438 3.28632813 -4.38671875 2.62890625 C-3 1 -3 1 0 0 Z " fill="#E8E9DD" transform="translate(527,249)"/>
<path d="M0 0 C0.99 0 1.98 0 3 0 C3.67119549 1.4562545 4.33681807 2.91507867 5 4.375 C5.556875 5.59316406 5.556875 5.59316406 6.125 6.8359375 C7 9 7 9 7 11 C6.01 11 5.02 11 4 11 C4 9.68 4 8.36 4 7 C3.34 7 2.68 7 2 7 C2 5.68 2 4.36 2 3 C1.34 3 0.68 3 0 3 C0 2.01 0 1.02 0 0 Z " fill="#E2E5DA" transform="translate(64,159)"/>
<path d="M0 0 C1.60717771 2.41076656 2.61542515 4.28099245 3.625 6.9375 C3.88539062 7.60652344 4.14578125 8.27554688 4.4140625 8.96484375 C5 11 5 11 5 15 C4.34 15 3.68 15 3 15 C3 13.02 3 11.04 3 9 C2.34 9 1.68 9 1 9 C1 7.68 1 6.36 1 5 C0.34 5 -0.32 5 -1 5 C-0.67 3.35 -0.34 1.7 0 0 Z " fill="#E5E7DC" transform="translate(17,43)"/>
<path d="M0 0 C0.66 0 1.32 0 2 0 C2 0.66 2 1.32 2 2 C2.66 2 3.32 2 4 2 C4 2.66 4 3.32 4 4 C4.66 4 5.32 4 6 4 C6 4.66 6 5.32 6 6 C6.66 6 7.32 6 8 6 C8.33 7.65 8.66 9.3 9 11 C8.01 11 7.02 11 6 11 C5.62875 9.88625 5.62875 9.88625 5.25 8.75 C3.90634806 5.79396573 2.31013315 4.23312872 0 2 C0 1.34 0 0.68 0 0 Z " fill="#E7E5D7" transform="translate(514,48)"/>
<path d="M0 0 C0.99 0 1.98 0 3 0 C3 0.99 3 1.98 3 3 C2.34 3 1.68 3 1 3 C1 4.32 1 5.64 1 7 C0.34 7 -0.32 7 -1 7 C-1 8.98 -1 10.96 -1 13 C-1.66 12.67 -2.32 12.34 -3 12 C-2.49202991 7.6822542 -1.80317221 3.96697886 0 0 Z " fill="#E4E6DA" transform="translate(247,307)"/>
<path d="M0 0 C0.99 0.33 1.98 0.66 3 1 C0.51047079 3.66735273 -1.63408134 5.55746343 -5 7 C-5.33 6.01 -5.66 5.02 -6 4 C-5.34 4 -4.68 4 -4 4 C-4 3.34 -4 2.68 -4 2 C-2.68 2 -1.36 2 0 2 C0 1.34 0 0.68 0 0 Z " fill="#EAEAE0" transform="translate(432,222)"/>
<path d="M0 0 C2.5 1.25 2.5 1.25 5 3 C5 4.32 5 5.64 5 7 C5.66 7 6.32 7 7 7 C7 8.65 7 10.3 7 12 C0 3.55172414 0 3.55172414 0 0 Z " fill="#ECEEE6" transform="translate(531,71)"/>
<path d="M0 0 C0.763125 0.309375 1.52625 0.61875 2.3125 0.9375 C4.18789677 1.67893593 6.08684652 2.36228217 8 3 C9.84499398 4.87617698 11.3683599 6.92737609 13 9 C9.32048886 8.39237431 7.14008504 6.80451225 4.25 4.5 C3.45078125 3.8709375 2.6515625 3.241875 1.828125 2.59375 C1.22484375 2.0678125 0.6215625 1.541875 0 1 C0 0.67 0 0.34 0 0 Z " fill="#EBEFE7" transform="translate(490,31)"/>
<path d="M0 0 C2.31966166 2.84685749 3.91581154 5.4763875 5 9 C4.67 9.99 4.34 10.98 4 12 C4 11.34 4 10.68 4 10 C3.34 10 2.68 10 2 10 C2 8.68 2 7.36 2 6 C1.34 6 0.68 6 0 6 C0 4.02 0 2.04 0 0 Z " fill="#EEF1E7" transform="translate(0,4)"/>
<path d="M0 0 C0.33 0 0.66 0 1 0 C1 2.64 1 5.28 1 8 C0.34 8 -0.32 8 -1 8 C-1.33 9.32 -1.66 10.64 -2 12 C-3.12377697 8.69564916 -2.89554742 6.9493138 -1.5625 3.75 C-1.27503906 3.04359375 -0.98757812 2.3371875 -0.69140625 1.609375 C-0.46324219 1.07828125 -0.23507813 0.5471875 0 0 Z " fill="#E3E6DB" transform="translate(221,370)"/>
<path d="M0 0 C1.99097846 2.98646769 2.94124926 5.59687262 4 9 C3.01 9 2.02 9 1 9 C1 7.68 1 6.36 1 5 C0.34 5 -0.32 5 -1 5 C-0.67 3.35 -0.34 1.7 0 0 Z " fill="#E0E5DA" transform="translate(133,317)"/>
<path d="M0 0 C0.66 1.32 1.32 2.64 2 4 C2.66 4 3.32 4 4 4 C4.33 6.64 4.66 9.28 5 12 C1.94063363 8.24532309 0 4.91886939 0 0 Z " fill="#082B13" transform="translate(48,113)"/>
<path d="M0 0 C0.66 0.33 1.32 0.66 2 1 C1 4 1 4 -1.9375 5.75 C-3.4534375 6.36875 -3.4534375 6.36875 -5 7 C-5.66 6.67 -6.32 6.34 -7 6 C-4.69 4.02 -2.38 2.04 0 0 Z " fill="#EDF0E7" transform="translate(501,274)"/>
<path d="M0 0 C1.99097846 2.98646769 2.94124926 5.59687262 4 9 C3.34 9.66 2.68 10.32 2 11 C2 9.68 2 8.36 2 7 C1.34 7 0.68 7 0 7 C0 4.69 0 2.38 0 0 Z " fill="#E0E5DA" transform="translate(78,187)"/>
<path d="M0 0 C0.66 0.33 1.32 0.66 2 1 C2 1.99 2 2.98 2 4 C1.34 4 0.68 4 0 4 C0 5.32 0 6.64 0 8 C-0.99 7.67 -1.98 7.34 -3 7 C-2.01 4.69 -1.02 2.38 0 0 Z " fill="#DFE4D8" transform="translate(540,224)"/>
<path d="M0 0 C1.99097846 2.98646769 2.94124926 5.59687262 4 9 C3.34 9 2.68 9 2 9 C2 8.34 2 7.68 2 7 C1.34 7 0.68 7 0 7 C0 4.69 0 2.38 0 0 Z " fill="#DEE4D9" transform="translate(166,395)"/>
<path d="M0 0 C0.99 0.33 1.98 0.66 3 1 C3.33 3.97 3.66 6.94 4 10 C1.16625119 6.79663178 0.4794463 4.21912747 0 0 Z " fill="#0A2F17" transform="translate(84,198)"/>
<path d="M0 0 C1.32 0 2.64 0 4 0 C3.67 1.98 3.34 3.96 3 6 C1.5 4.6875 1.5 4.6875 0 3 C0 2.01 0 1.02 0 0 Z " fill="#0A381E" transform="translate(1,3)"/>
</svg>
